<?xml version="1.0" encoding="utf-8"?>
<!-- Generator: Adobe Illustrator 17.0.0, SVG Export Plug-In . SVG Version: 6.00 Build 0)  -->
<!DOCTYPE svg PUBLIC "-//W3C//DTD SVG 1.1//EN" "http://www.w3.org/Graphics/SVG/1.1/DTD/svg11.dtd">
<svg version="1.1" xmlns="http://www.w3.org/2000/svg" xmlns:xlink="http://www.w3.org/1999/xlink" x="0px" y="0px"
	 width="1115.473px" height="857.181px" viewBox="0 0 1115.473 857.181" enable-background="new 0 0 1115.473 857.181"
	 xml:space="preserve">
<g id="Layer_1" display="none">
	<g display="inline">
		<g>
			<defs>
				<rect id="SVGID_1_" x="0" y="0" width="1115.473" height="857.181"/>
			</defs>
			<clipPath id="SVGID_2_">
				<use xlink:href="#SVGID_1_"  overflow="visible"/>
			</clipPath>
			<linearGradient id="SVGID_3_" gradientUnits="userSpaceOnUse" x1="9.6803" y1="-3.1643" x2="1693.4397" y2="1203.6497">
				<stop  offset="0.0026" style="stop-color:#ECFFBF"/>
				<stop  offset="0.1207" style="stop-color:#99D2BE"/>
				<stop  offset="0.23" style="stop-color:#53ACBD"/>
				<stop  offset="0.2806" style="stop-color:#379DBD"/>
				<stop  offset="0.4259" style="stop-color:#307FA2"/>
				<stop  offset="0.6873" style="stop-color:#254F76"/>
				<stop  offset="0.8871" style="stop-color:#1F315A"/>
				<stop  offset="1" style="stop-color:#1C2650"/>
			</linearGradient>
			<rect x="0" y="0" clip-path="url(#SVGID_2_)" fill="url(#SVGID_3_)" width="1224.138" height="857.181"/>
			<g opacity="0.6" clip-path="url(#SVGID_2_)">
				<g>
					<linearGradient id="SVGID_4_" gradientUnits="userSpaceOnUse" x1="-40.9966" y1="82.2295" x2="1265.1338" y2="82.2295">
						<stop  offset="7.812500e-004" style="stop-color:#FFFFFF"/>
						<stop  offset="1" style="stop-color:#FFFFFF"/>
					</linearGradient>
					<polygon opacity="0.3" fill="url(#SVGID_4_)" points="8.538,57.779 1265.134,16.983 -40.997,147.476 					"/>
					
						<linearGradient id="SVGID_5_" gradientUnits="userSpaceOnUse" x1="-3239.1064" y1="223.3613" x2="-1932.9761" y2="223.3613" gradientTransform="matrix(-1 0 0 -1 -1973.9727 373.6494)">
						<stop  offset="7.812500e-004" style="stop-color:#FFFFFF"/>
						<stop  offset="1" style="stop-color:#FFFFFF"/>
					</linearGradient>
					<polygon opacity="0.3" fill="url(#SVGID_5_)" points="1215.599,174.739 -40.997,215.534 1265.134,85.042 					"/>
				</g>
				<g>
					<linearGradient id="SVGID_6_" gradientUnits="userSpaceOnUse" x1="-40.9966" y1="226.5654" x2="1265.1338" y2="226.5654">
						<stop  offset="7.812500e-004" style="stop-color:#FFFFFF"/>
						<stop  offset="1" style="stop-color:#FFFFFF"/>
					</linearGradient>
					<polygon opacity="0.3" fill="url(#SVGID_6_)" points="8.538,202.115 1265.134,161.319 -40.997,291.811 					"/>
					
						<linearGradient id="SVGID_7_" gradientUnits="userSpaceOnUse" x1="-3239.1064" y1="79.0257" x2="-1932.9761" y2="79.0257" gradientTransform="matrix(-1 0 0 -1 -1973.9727 373.6494)">
						<stop  offset="7.812500e-004" style="stop-color:#FFFFFF"/>
						<stop  offset="1" style="stop-color:#FFFFFF"/>
					</linearGradient>
					<polygon opacity="0.3" fill="url(#SVGID_7_)" points="1215.599,319.075 -40.997,359.87 1265.134,229.378 					"/>
				</g>
			</g>
			<g clip-path="url(#SVGID_2_)">
				<g>
					<g>
						<g>
							<path fill="#FFFFFF" d="M725.411,386.835c0.233-0.836,0.129-1.716-0.318-2.463c-0.639-1.067-1.594-1.413-2.765-1.552
								c-0.79-0.094-1.745,0.393-2.285,0.932c-0.79,0.791-1.129,2.007-0.795,3.084c0.495,1.597,2.125,2.599,3.777,2.144
								c1.574-0.433,2.64-2.178,2.145-3.777c-0.006-0.018-0.012-0.038-0.018-0.056c-0.104,0.789-0.207,1.577-0.31,2.366
								c0.008-0.014,0.015-0.027,0.022-0.04c-0.367,0.367-0.734,0.734-1.102,1.102c0.017-0.008,0.033-0.017,0.05-0.025
								c-0.244,0.104-0.488,0.207-0.733,0.31c0.021-0.002,0.043-0.005,0.063-0.008c-0.271,0.037-0.544,0.073-0.815,0.109
								c0.021,0.003,0.042,0.005,0.064,0.008c-0.517-0.14-1.033-0.279-1.55-0.419c0.017,0.008,0.034,0.016,0.051,0.024
								c-0.367-0.367-0.734-0.734-1.102-1.102c0.008,0.014,0.016,0.027,0.024,0.04c-0.103-0.789-0.207-1.577-0.309-2.366
								c-0.006,0.019-0.011,0.038-0.017,0.056c-0.451,1.611,0.538,3.335,2.145,3.777
								C723.253,389.424,724.959,388.444,725.411,386.835L725.411,386.835z"/>
						</g>
					</g>
					<g>
						<g>
							<path fill="#FFFFFF" d="M732.729,432.892c-0.111-0.112-0.224-0.224-0.336-0.335c-1.187-1.18-3.156-1.186-4.342,0
								c-1.18,1.18-1.187,3.163,0,4.342c0.112,0.111,0.224,0.224,0.336,0.335c1.183,1.183,3.159,1.183,4.342,0
								C733.911,436.051,733.912,434.074,732.729,432.892L732.729,432.892z"/>
						</g>
					</g>
					<g>
						<g>
							<path fill="#FFFFFF" d="M630.674,407.691c0.111-0.112,0.224-0.224,0.335-0.335c1.183-1.184,1.184-3.159,0-4.342
								c-1.183-1.183-3.159-1.184-4.342,0c-0.111,0.112-0.224,0.224-0.335,0.335c-1.183,1.184-1.184,3.159,0,4.342
								C627.515,408.874,629.492,408.875,630.674,407.691L630.674,407.691z"/>
						</g>
					</g>
					<g>
						<g>
							<path fill="#FFFFFF" d="M660.216,353.665c-0.111-0.112-0.224-0.224-0.336-0.335c-1.186-1.18-3.157-1.185-4.342,0
								c-1.181,1.181-1.186,3.162,0,4.342c0.112,0.112,0.224,0.224,0.336,0.335c1.183,1.184,3.159,1.183,4.342,0
								C661.399,356.824,661.398,354.849,660.216,353.665L660.216,353.665z"/>
						</g>
					</g>
					<g>
						<g>
							<path fill="#FFFFFF" d="M597.282,430.985c-0.112,0-0.224,0-0.336,0c-1.674,0-3.07,1.396-3.07,3.07
								c0,1.674,1.396,3.07,3.07,3.07c0.112,0,0.224,0,0.336,0c1.674,0,3.07-1.397,3.07-3.07
								C600.352,432.382,598.956,430.985,597.282,430.985L597.282,430.985z"/>
						</g>
					</g>
					<g>
						<g>
							<path fill="#FFFFFF" d="M650.323,465.898c-0.111,0-0.224,0-0.335,0c-1.674,0-3.07,1.396-3.07,3.07
								c0,1.674,1.396,3.07,3.07,3.07c0.111,0,0.224,0,0.335,0c1.674,0,3.07-1.396,3.07-3.07
								C653.393,467.295,651.997,465.898,650.323,465.898L650.323,465.898z"/>
						</g>
					</g>
					<g>
						<g>
							<path fill="#FFFFFF" d="M813.818,490.039c-0.219,0-0.437,0-0.656,0c-1.674,0-3.07,1.397-3.07,3.07s1.396,3.07,3.07,3.07
								c0.219,0,0.438,0,0.656,0c1.674,0,3.07-1.396,3.07-3.07S815.492,490.039,813.818,490.039L813.818,490.039z"/>
						</g>
					</g>
					<g>
						<g>
							<path fill="#FFFFFF" d="M881.55,452.778c3.96,0,3.96-6.141,0-6.141C877.59,446.638,877.59,452.778,881.55,452.778
								L881.55,452.778z"/>
						</g>
					</g>
					<g>
						<g>
							<path fill="#FFFFFF" d="M953.234,451.186c-0.217-0.023-0.433-0.048-0.649-0.071c-0.766-0.083-1.649,0.377-2.171,0.9
								c-0.573,0.573-0.899,1.359-0.899,2.171c0,0.811,0.326,1.598,0.899,2.171c0.623,0.624,1.325,0.807,2.171,0.899
								c0.217,0.023,0.433,0.048,0.649,0.071c0.766,0.083,1.648-0.377,2.171-0.9c0.573-0.573,0.899-1.36,0.899-2.171
								c0-0.811-0.326-1.598-0.899-2.171C954.782,451.462,954.08,451.279,953.234,451.186L953.234,451.186z"/>
						</g>
					</g>
					<g>
						<g>
							<path fill="#FFFFFF" d="M807.9,380.22c-0.136,0-0.271,0-0.407,0c-3.96,0-3.96,6.141,0,6.141c0.136,0,0.271,0,0.407,0
								C811.86,386.361,811.86,380.22,807.9,380.22c-0.136,0-0.271,0-0.407,0c-3.96,0-3.96,6.141,0,6.141c0.136,0,0.271,0,0.407,0
								C811.86,386.361,811.86,380.22,807.9,380.22L807.9,380.22z"/>
						</g>
					</g>
					<g>
						<g>
							<path fill="#FFFFFF" d="M858.535,369.698c-0.136,0-0.271,0-0.407,0c-3.96,0-3.96,6.141,0,6.141c0.136,0,0.271,0,0.407,0
								C862.495,375.839,862.495,369.698,858.535,369.698c-0.136,0-0.271,0-0.407,0c-3.96,0-3.96,6.141,0,6.141
								c0.136,0,0.271,0,0.407,0C862.495,375.839,862.495,369.698,858.535,369.698L858.535,369.698z"/>
						</g>
					</g>
					<g>
						<g>
							<path fill="#FFFFFF" d="M767.787,318.629c3.96,0,3.96-6.141,0-6.141C763.827,312.488,763.827,318.629,767.787,318.629
								L767.787,318.629z"/>
						</g>
					</g>
					<g>
						<g>
							<path fill="#FFFFFF" d="M782.911,283.777c3.96,0,3.96-6.141,0-6.141C778.951,277.636,778.951,283.777,782.911,283.777
								L782.911,283.777z"/>
						</g>
					</g>
					<g>
						<g>
							<path fill="#FFFFFF" d="M850.445,293.003c-0.219,0.219-0.438,0.438-0.656,0.657c-1.183,1.183-1.184,3.159,0,4.342
								c1.183,1.183,3.159,1.183,4.342,0c0.219-0.219,0.437-0.438,0.656-0.657c1.183-1.183,1.184-3.159,0-4.342
								C853.604,291.82,851.628,291.82,850.445,293.003L850.445,293.003z"/>
						</g>
					</g>
					<g>
						<g>
							<path fill="#FFFFFF" d="M881.991,337.259c0-0.136,0-0.272,0-0.408c0-3.96-6.141-3.96-6.141,0c0,0.136,0,0.272,0,0.408
								C875.851,341.219,881.991,341.219,881.991,337.259c0-0.136,0-0.272,0-0.408c0-3.96-6.141-3.96-6.141,0
								c0,0.136,0,0.272,0,0.408C875.851,341.219,881.991,341.219,881.991,337.259L881.991,337.259z"/>
						</g>
					</g>
					<g>
						<g>
							<path fill="#FFFFFF" d="M919.691,280.924c-0.22,0-0.438,0-0.658,0c-1.674,0-3.07,1.396-3.07,3.07
								c0,1.674,1.396,3.07,3.07,3.07c0.22,0,0.438,0,0.658,0c1.674,0,3.07-1.396,3.07-3.07
								C922.762,282.32,921.365,280.924,919.691,280.924L919.691,280.924z"/>
						</g>
					</g>
					<g>
						<g>
							<path fill="#FFFFFF" d="M950.599,283.119c3.96,0,3.96-6.141,0-6.141C946.639,276.978,946.639,283.119,950.599,283.119
								L950.599,283.119z"/>
						</g>
					</g>
					<g>
						<g>
							<path fill="#FFFFFF" d="M950.599,326.298c-0.22,0-0.438,0-0.658,0c-1.674,0-3.07,1.396-3.07,3.07
								c0,1.674,1.397,3.07,3.07,3.07c0.22,0,0.439,0,0.658,0c1.674,0,3.07-1.396,3.07-3.07
								C953.669,327.695,952.272,326.298,950.599,326.298L950.599,326.298z"/>
						</g>
					</g>
					<g>
						<g>
							<path fill="#FFFFFF" d="M1042.003,284.212c-0.136,0-0.271,0-0.406,0c-3.96,0-3.96,6.141,0,6.141c0.136,0,0.271,0,0.406,0
								C1045.963,290.353,1045.963,284.212,1042.003,284.212c-0.136,0-0.271,0-0.406,0c-3.96,0-3.96,6.141,0,6.141
								c0.136,0,0.271,0,0.406,0C1045.963,290.353,1045.963,284.212,1042.003,284.212L1042.003,284.212z"/>
						</g>
					</g>
					<g>
						<g>
							<path fill="#FFFFFF" d="M1075.98,303.064c0-0.219,0-0.438,0-0.657c0-1.674-1.396-3.07-3.07-3.07s-3.07,1.397-3.07,3.07
								c0,0.219,0,0.438,0,0.657c0,1.674,1.397,3.07,3.07,3.07S1075.98,304.738,1075.98,303.064L1075.98,303.064z"/>
						</g>
					</g>
					<g>
						<g>
							<path fill="#FFFFFF" d="M1103.797,420.218c-0.024,0-0.049,0-0.073,0c0.517,0.14,1.033,0.279,1.55,0.419
								c-0.019-0.008-0.039-0.017-0.059-0.025c0.207,0.16,0.414,0.32,0.621,0.48c-0.016-0.016-0.03-0.031-0.045-0.046
								c0.16,0.207,0.32,0.415,0.479,0.622c-0.01-0.02-0.021-0.041-0.03-0.061c0.103,0.245,0.206,0.489,0.31,0.733
								c-0.006-0.023-0.012-0.047-0.018-0.07c0.036,0.272,0.073,0.544,0.109,0.816c-0.007-0.05-0.005-0.1,0.006-0.149
								c-0.037,0.272-0.073,0.544-0.11,0.816c0.008-0.022,0.016-0.046,0.022-0.068c-0.103,0.244-0.206,0.489-0.31,0.733
								c0.012-0.02,0.023-0.039,0.036-0.058c-0.16,0.207-0.32,0.414-0.48,0.621c0.016-0.014,0.032-0.028,0.048-0.042
								c-0.451,0.263-0.903,0.526-1.354,0.789c0.021-0.007,0.04-0.014,0.061-0.021c-0.272,0.037-0.544,0.073-0.816,0.109
								c0.024,0.002,0.049,0.003,0.073,0.005c1.672,0.116,3.07-1.485,3.07-3.07c0-1.762-1.401-2.954-3.07-3.07
								c-0.9-0.063-1.701,0.387-2.353,0.958c-0.7,0.614-0.858,1.509-0.967,2.372c-0.104,0.822,0.392,1.811,0.952,2.377
								c0.623,0.632,1.458,0.968,2.348,0.97c1.674,0.004,3.07-1.399,3.07-3.07C1106.867,421.611,1105.471,420.222,1103.797,420.218
								L1103.797,420.218z"/>
						</g>
					</g>
					<g>
						<g>
							<path fill="#FFFFFF" d="M1039.716,473.218c-0.011-0.039-0.022-0.078-0.033-0.117c0.037,0.272,0.073,0.544,0.11,0.815
								c-0.017-0.127-0.017-0.235,0-0.362c-0.036,0.272-0.073,0.544-0.109,0.816c0.016-0.081,0.04-0.158,0.074-0.233
								c-0.104,0.244-0.207,0.489-0.31,0.733c0.033-0.075,0.075-0.145,0.124-0.211c-0.16,0.207-0.319,0.414-0.479,0.621
								c0.049-0.066,0.105-0.124,0.169-0.176c-0.207,0.16-0.414,0.32-0.622,0.48c0.064-0.052,0.133-0.095,0.207-0.128
								c-0.245,0.103-0.489,0.206-0.733,0.31c0.038-0.015,0.076-0.028,0.115-0.042c1.57-0.572,2.615-2.064,2.144-3.777
								c-0.417-1.515-2.203-2.718-3.777-2.145c-1.053,0.384-1.768,0.925-2.394,1.859c-0.602,0.898-0.688,2.17-0.408,3.188
								c0.445,1.612,2.163,2.588,3.777,2.145C1039.183,476.552,1040.16,474.83,1039.716,473.218L1039.716,473.218z"/>
						</g>
					</g>
					<g>
						<g>
							<path fill="#FFFFFF" d="M1086.678,511.319c-0.22-0.438-0.439-0.876-0.66-1.314c-0.753-1.493-2.825-1.907-4.201-1.102
								c-1.509,0.885-1.854,2.707-1.102,4.201c0.221,0.438,0.441,0.876,0.66,1.315c0.749,1.495,2.829,1.905,4.201,1.102
								C1087.088,514.634,1087.426,512.816,1086.678,511.319L1086.678,511.319z"/>
						</g>
					</g>
					<g>
						<g>
							<path fill="#FFFFFF" d="M1147.001,485.876c0-0.22,0-0.439,0-0.658c0-1.674-1.396-3.07-3.07-3.07s-3.07,1.397-3.07,3.07
								c0,0.22,0,0.439,0,0.658c0,1.674,1.397,3.07,3.07,3.07S1147.001,487.55,1147.001,485.876L1147.001,485.876z"/>
						</g>
					</g>
					<g>
						<g>
							<path fill="#FFFFFF" d="M1147.659,547.03c0-0.219,0-0.438,0-0.656c0-1.674-1.396-3.07-3.07-3.07
								c-1.674,0-3.07,1.396-3.07,3.07c0,0.219,0,0.438,0,0.656c0,1.674,1.396,3.07,3.07,3.07
								C1146.263,550.101,1147.659,548.704,1147.659,547.03L1147.659,547.03z"/>
						</g>
					</g>
					<g>
						<g>
							<path fill="#FFFFFF" d="M1004.303,567.417c0-0.22,0-0.438,0-0.658c0-1.674-1.396-3.07-3.07-3.07
								c-1.674,0-3.07,1.397-3.07,3.07c0,0.22,0,0.439,0,0.658c0,1.674,1.396,3.07,3.07,3.07
								C1002.906,570.487,1004.303,569.091,1004.303,567.417L1004.303,567.417z"/>
						</g>
					</g>
					<g>
						<g>
							<path fill="#FFFFFF" d="M805.71,575.967c0-0.22,0-0.438,0-0.658c0-1.674-1.396-3.07-3.07-3.07c-1.674,0-3.07,1.397-3.07,3.07
								c0,0.22,0,0.438,0,0.658c0,1.674,1.396,3.07,3.07,3.07C804.313,579.037,805.71,577.641,805.71,575.967L805.71,575.967z"/>
						</g>
					</g>
					<g>
						<g>
							<path fill="#FFFFFF" d="M676.381,538.265c3.96,0,3.96-6.141,0-6.141C672.421,532.124,672.421,538.265,676.381,538.265
								L676.381,538.265z"/>
						</g>
					</g>
					<g>
						<g>
							<path fill="#FFFFFF" d="M597.253,518.099c0-0.22,0-0.438,0-0.658c0-1.674-1.397-3.07-3.07-3.07
								c-1.674,0-3.07,1.396-3.07,3.07c0,0.22,0,0.439,0,0.658c0,1.674,1.396,3.07,3.07,3.07
								C595.856,521.169,597.253,519.773,597.253,518.099L597.253,518.099z"/>
						</g>
					</g>
					<g>
						<g>
							<path fill="#FFFFFF" d="M460.691,542.211c3.96,0,3.96-6.141,0-6.141C456.731,536.07,456.731,542.211,460.691,542.211
								L460.691,542.211z"/>
						</g>
					</g>
					<g>
						<g>
							<path fill="#FFFFFF" d="M416.434,467.922c-0.219,0.22-0.438,0.439-0.658,0.658c-1.184,1.182-1.182,3.16,0,4.342
								c1.184,1.184,3.158,1.182,4.342,0c0.22-0.219,0.438-0.439,0.658-0.658c1.183-1.183,1.183-3.159,0-4.342
								C419.593,466.739,417.617,466.739,416.434,467.922L416.434,467.922z"/>
						</g>
					</g>
					<g>
						<g>
							<path fill="#FFFFFF" d="M425.839,428.225c-0.219,0-0.439,0-0.658,0c-1.674,0-3.07,1.396-3.07,3.07
								c0,1.674,1.397,3.07,3.07,3.07c0.219,0,0.439,0,0.658,0c1.674,0,3.07-1.396,3.07-3.07
								C428.909,429.621,427.513,428.225,425.839,428.225L425.839,428.225z"/>
						</g>
					</g>
					<g>
						<g>
							<path fill="#FFFFFF" d="M517.244,404.774c3.96,0,3.96-6.141,0-6.141C513.284,398.634,513.284,404.774,517.244,404.774
								L517.244,404.774z"/>
						</g>
					</g>
					<g>
						<g>
							<path fill="#FFFFFF" d="M417.749,351.528c-0.219,0.219-0.438,0.438-0.658,0.657c-1.184,1.182-1.182,3.16,0,4.342
								c1.184,1.184,3.158,1.182,4.342,0c0.219-0.219,0.439-0.438,0.658-0.657c1.183-1.183,1.183-3.159,0-4.342
								C420.909,350.345,418.932,350.345,417.749,351.528L417.749,351.528z"/>
						</g>
					</g>
					<g>
						<g>
							<path fill="#FFFFFF" d="M415.975,315.119c-0.136,0-0.271,0-0.407,0c-3.96,0-3.96,6.141,0,6.141c0.136,0,0.272,0,0.407,0
								C419.935,321.26,419.935,315.119,415.975,315.119c-0.136,0-0.271,0-0.407,0c-3.96,0-3.96,6.141,0,6.141
								c0.136,0,0.272,0,0.407,0C419.935,321.26,419.935,315.119,415.975,315.119L415.975,315.119z"/>
						</g>
					</g>
					<g>
						<g>
							<path fill="#FFFFFF" d="M307.472,326.298c-0.219,0-0.439,0-0.658,0c-1.674,0-3.07,1.396-3.07,3.07
								c0,1.674,1.397,3.07,3.07,3.07c0.219,0,0.438,0,0.658,0c1.674,0,3.07-1.396,3.07-3.07
								C310.542,327.695,309.146,326.298,307.472,326.298L307.472,326.298z"/>
						</g>
					</g>
					<g>
						<g>
							<path fill="#FFFFFF" d="M321.499,297.146c0,0.136,0,0.272,0,0.408c0,3.959,6.141,3.959,6.141,0c0-0.136,0-0.272,0-0.408
								C327.64,293.186,321.499,293.186,321.499,297.146c0,0.136,0,0.272,0,0.408c0,3.959,6.141,3.959,6.141,0
								c0-0.136,0-0.272,0-0.408C327.64,293.186,321.499,293.186,321.499,297.146L321.499,297.146z"/>
						</g>
					</g>
					<g>
						<g>
							<path fill="#FFFFFF" d="M308.515,437.877c-0.024-0.217-0.048-0.435-0.071-0.651c-0.093-0.846-0.276-1.547-0.899-2.171
								c-0.573-0.573-1.36-0.899-2.171-0.899c-0.811,0-1.598,0.326-2.171,0.899c-0.522,0.522-0.983,1.406-0.899,2.171
								c0.024,0.217,0.047,0.435,0.071,0.651c0.093,0.847,0.275,1.547,0.899,2.171c0.573,0.573,1.36,0.899,2.171,0.899
								c0.811,0,1.598-0.326,2.171-0.899C308.138,439.526,308.599,438.642,308.515,437.877L308.515,437.877z"/>
						</g>
					</g>
					<g>
						<g>
							<path fill="#FFFFFF" d="M223.958,296.271c0.438,0,0.876,0,1.314,0c1.674,0,3.07-1.397,3.07-3.07s-1.396-3.07-3.07-3.07
								c-0.438,0-0.877,0-1.314,0c-1.674,0-3.07,1.397-3.07,3.07S222.284,296.271,223.958,296.271L223.958,296.271z"/>
						</g>
					</g>
					<g>
						<g>
							<path fill="#FFFFFF" d="M121.373,317.972c0.219,0,0.439,0,0.658,0c1.674,0,3.07-1.397,3.07-3.07
								c0-1.674-1.396-3.07-3.07-3.07c-0.219,0-0.439,0-0.658,0c-1.674,0-3.07,1.397-3.07,3.07
								C118.302,316.576,119.699,317.972,121.373,317.972L121.373,317.972z"/>
						</g>
					</g>
					<g>
						<g>
							<path fill="#FFFFFF" d="M139.782,388.733c-0.028,0-0.055,0-0.083-0.001c0.272,0.037,0.544,0.073,0.816,0.11
								c-0.05-0.005-0.098-0.019-0.144-0.042c0.245,0.103,0.489,0.206,0.733,0.309c-0.02-0.013-0.04-0.026-0.061-0.039
								c0.207,0.16,0.415,0.32,0.622,0.48c-0.039-0.031-0.071-0.066-0.099-0.107c0.16,0.207,0.32,0.415,0.48,0.622
								c-0.028-0.043-0.051-0.088-0.068-0.137c0.103,0.245,0.206,0.489,0.31,0.733c-0.018-0.051-0.031-0.103-0.038-0.156
								c0.036,0.272,0.073,0.544,0.109,0.816c-0.008-0.084-0.008-0.162,0-0.246c-0.037,0.272-0.073,0.544-0.109,0.816
								c0.015-0.081,0.035-0.152,0.067-0.228c-0.103,0.245-0.207,0.489-0.31,0.733c0.013-0.022,0.025-0.044,0.038-0.066
								c-0.16,0.207-0.32,0.414-0.48,0.621c0.027-0.041,0.06-0.077,0.098-0.107c-0.208,0.16-0.415,0.32-0.622,0.48
								c0.02-0.013,0.04-0.026,0.061-0.04c-0.245,0.103-0.489,0.207-0.733,0.31c0.045-0.023,0.093-0.038,0.143-0.043
								c-0.272,0.037-0.544,0.073-0.816,0.11c0.028-0.001,0.055-0.001,0.083-0.001c1.673-0.018,3.07-1.383,3.07-3.07
								c0-1.66-1.396-3.088-3.07-3.07c-0.972,0.011-1.802,0.368-2.511,1.032c-0.745,0.699-0.97,1.639-1.057,2.604
								c-0.181,2.004,1.663,3.707,3.57,3.716c1.674,0.008,3.07-1.403,3.07-3.07C142.852,390.123,141.456,388.742,139.782,388.733
								L139.782,388.733z"/>
						</g>
					</g>
					<g>
						<g>
							<path fill="#FFFFFF" d="M53.423,455.626c0-0.219,0-0.438,0-0.656c0-1.674-1.396-3.07-3.07-3.07
								c-1.674,0-3.07,1.397-3.07,3.07c0,0.219,0,0.438,0,0.656c0,1.674,1.396,3.07,3.07,3.07
								C52.026,458.696,53.423,457.3,53.423,455.626L53.423,455.626z"/>
						</g>
					</g>
					<g>
						<g>
							<path fill="#FFFFFF" d="M96.582,508.036c-0.219-0.219-0.438-0.438-0.657-0.658c-1.18-1.186-3.162-1.181-4.342,0
								c-1.185,1.186-1.18,3.156,0,4.342c0.219,0.22,0.438,0.439,0.657,0.658c1.184,1.182,3.158,1.184,4.342,0
								C97.765,511.196,97.767,509.218,96.582,508.036L96.582,508.036z"/>
						</g>
					</g>
					<g>
						<g>
							<path fill="#FFFFFF" d="M68.714,577.479c0.222-0.438,0.445-0.874,0.667-1.312c0.758-1.492,0.404-3.318-1.101-4.201
								c-1.379-0.808-3.443-0.389-4.201,1.102c-0.222,0.438-0.445,0.874-0.667,1.311c-0.758,1.492-0.404,3.318,1.101,4.201
								C65.893,579.389,67.956,578.97,68.714,577.479L68.714,577.479z"/>
						</g>
					</g>
					<g>
						<g>
							<path fill="#FFFFFF" d="M150.505,631.006c-0.22-0.219-0.439-0.439-0.658-0.658c-1.18-1.186-3.161-1.181-4.342,0
								c-1.185,1.185-1.18,3.156,0,4.342c0.219,0.22,0.438,0.439,0.658,0.658c1.184,1.182,3.158,1.184,4.342,0
								C151.687,634.166,151.689,632.188,150.505,631.006L150.505,631.006z"/>
						</g>
					</g>
					<g>
						<g>
							<path fill="#FFFFFF" d="M241.495,528.618c0-0.219,0-0.439,0-0.657c0-1.674-1.396-3.07-3.07-3.07s-3.07,1.396-3.07,3.07
								c0,0.219,0,0.439,0,0.657c0,1.674,1.396,3.07,3.07,3.07S241.495,530.292,241.495,528.618L241.495,528.618z"/>
						</g>
					</g>
					<g>
						<g>
							<path fill="#FFFFFF" d="M298.923,539.581c3.96,0,3.96-6.141,0-6.141C294.963,533.44,294.963,539.581,298.923,539.581
								L298.923,539.581z"/>
						</g>
					</g>
					<g>
						<g>
							<path fill="#FFFFFF" d="M529.5,318.259c-0.534,0-1.067,0-1.6,0c-3.96,0-3.96,6.141,0,6.141c0.533,0,1.066,0,1.6,0
								C533.46,324.4,533.46,318.259,529.5,318.259c-0.534,0-1.067,0-1.6,0c-3.96,0-3.96,6.141,0,6.141c0.533,0,1.066,0,1.6,0
								C533.46,324.4,533.46,318.259,529.5,318.259L529.5,318.259z"/>
						</g>
					</g>
					<g>
						<g>
							<path fill="#FFFFFF" d="M633.396,305.818c0-0.861,0-1.723,0-2.585c0-1.674-1.397-3.07-3.07-3.07
								c-1.674,0-3.07,1.396-3.07,3.07c0,0.861,0,1.723,0,2.585c0,1.674,1.396,3.07,3.07,3.07
								C631.999,308.889,633.396,307.492,633.396,305.818L633.396,305.818z"/>
						</g>
					</g>
					<g>
						<g>
							<path fill="#FFFFFF" d="M574.297,354.342c-0.845-0.119-1.69-0.239-2.535-0.358c-0.859-0.121-1.585-0.148-2.366,0.31
								c-0.686,0.402-1.2,1.067-1.411,1.834c-0.218,0.793-0.106,1.657,0.31,2.366c0.359,0.613,1.095,1.306,1.834,1.411
								c0.845,0.119,1.69,0.239,2.535,0.358c0.859,0.121,1.584,0.148,2.366-0.31c0.686-0.402,1.2-1.067,1.411-1.834
								c0.218-0.792,0.106-1.657-0.31-2.366C575.772,355.139,575.037,354.446,574.297,354.342L574.297,354.342z"/>
						</g>
					</g>
				</g>
				<g>
					<g>
						<g>
							<path fill="#FFFFFF" d="M464.227,134.479c0.112,0.112,0.224,0.224,0.336,0.335c1.184,1.182,3.158,1.184,4.342,0
								c1.182-1.182,1.184-3.16,0-4.342c-0.112-0.112-0.224-0.224-0.336-0.335c-1.184-1.182-3.158-1.184-4.342,0
								C463.044,131.319,463.042,133.297,464.227,134.479L464.227,134.479z"/>
						</g>
					</g>
					<g>
						<g>
							<path fill="#FFFFFF" d="M466.555,216.727c0.112-0.112,0.224-0.224,0.335-0.335c1.185-1.181,1.181-3.161,0-4.342
								c-1.185-1.185-3.157-1.181-4.342,0c-0.112,0.111-0.224,0.223-0.335,0.335c-1.18,1.186-1.185,3.157,0,4.342
								C463.393,217.908,465.374,217.914,466.555,216.727L466.555,216.727z"/>
						</g>
					</g>
					<g>
						<g>
							<path fill="#FFFFFF" d="M495.94,177.006c3.96,0,3.96-6.141,0-6.141C491.98,170.866,491.98,177.006,495.94,177.006
								L495.94,177.006z"/>
						</g>
					</g>
					<g>
						<g>
							<path fill="#FFFFFF" d="M526.153,206.213c3.96,0,3.96-6.141,0-6.141C522.193,200.072,522.193,206.213,526.153,206.213
								L526.153,206.213z"/>
						</g>
					</g>
					<g>
						<g>
							<path fill="#FFFFFF" d="M587.588,164.249c3.96,0,3.96-6.141,0-6.141C583.628,158.109,583.628,164.249,587.588,164.249
								L587.588,164.249z"/>
						</g>
					</g>
					<g>
						<g>
							<path fill="#FFFFFF" d="M539.067,137.5c0.112-0.112,0.224-0.224,0.336-0.336c1.182-1.184,1.184-3.158,0-4.342
								c-1.182-1.182-3.16-1.184-4.342,0c-0.112,0.112-0.224,0.224-0.336,0.336c-1.184,1.182-1.183,3.16,0,4.342
								C535.908,138.684,537.884,138.683,539.067,137.5L539.067,137.5z"/>
						</g>
					</g>
					<g>
						<g>
							<path fill="#FFFFFF" d="M597.659,216.62c0.112,0,0.224,0,0.336,0c1.674,0,3.07-1.396,3.07-3.07s-1.396-3.07-3.07-3.07
								c-0.112,0-0.224,0-0.336,0c-1.674,0-3.07,1.396-3.07,3.07S595.985,216.62,597.659,216.62L597.659,216.62z"/>
						</g>
					</g>
					<g>
						<g>
							<path fill="#FFFFFF" d="M544.618,251.533c0.112,0,0.224,0,0.335,0c1.674,0,3.07-1.396,3.07-3.07
								c0-1.674-1.396-3.07-3.07-3.07c-0.112,0-0.224,0-0.335,0c-1.674,0-3.07,1.396-3.07,3.07
								C541.547,250.137,542.944,251.533,544.618,251.533L544.618,251.533z"/>
						</g>
					</g>
					<g>
						<g>
							<path fill="#FFFFFF" d="M381.123,275.673c0.219,0,0.438,0,0.657,0c1.674,0,3.07-1.396,3.07-3.07
								c0-1.674-1.397-3.07-3.07-3.07c-0.219,0-0.438,0-0.657,0c-1.674,0-3.07,1.397-3.07,3.07
								C378.052,274.276,379.449,275.673,381.123,275.673L381.123,275.673z"/>
						</g>
					</g>
					<g>
						<g>
							<path fill="#FFFFFF" d="M313.39,232.271c3.96,0,3.96-6.141,0-6.141C309.43,226.131,309.43,232.271,313.39,232.271
								L313.39,232.271z"/>
						</g>
					</g>
					<g>
						<g>
							<path fill="#FFFFFF" d="M241.706,236.821c0.217-0.024,0.434-0.047,0.65-0.071c0.846-0.092,1.548-0.276,2.171-0.899
								c0.573-0.573,0.9-1.36,0.9-2.171c0-1.537-1.403-3.251-3.07-3.07c-0.217,0.023-0.434,0.047-0.65,0.071
								c-0.846,0.093-1.547,0.275-2.171,0.899c-0.573,0.573-0.9,1.36-0.9,2.171c0,0.811,0.326,1.598,0.9,2.171
								C240.057,236.443,240.941,236.905,241.706,236.821L241.706,236.821z"/>
						</g>
					</g>
					<g>
						<g>
							<path fill="#FFFFFF" d="M387.04,165.855c0.136,0,0.271,0,0.407,0c3.96,0,3.96-6.141,0-6.141c-0.136,0-0.271,0-0.407,0
								C383.081,159.714,383.081,165.855,387.04,165.855c0.136,0,0.271,0,0.407,0c3.96,0,3.96-6.141,0-6.141
								c-0.136,0-0.271,0-0.407,0C383.081,159.714,383.081,165.855,387.04,165.855L387.04,165.855z"/>
						</g>
					</g>
					<g>
						<g>
							<path fill="#FFFFFF" d="M336.406,155.333c0.136,0,0.272,0,0.407,0c3.96,0,3.96-6.141,0-6.141c-0.135,0-0.271,0-0.407,0
								C332.446,149.192,332.446,155.333,336.406,155.333c0.136,0,0.272,0,0.407,0c3.96,0,3.96-6.141,0-6.141
								c-0.135,0-0.271,0-0.407,0C332.446,149.192,332.446,155.333,336.406,155.333L336.406,155.333z"/>
						</g>
					</g>
					<g>
						<g>
							<path fill="#FFFFFF" d="M377.177,89.574c3.96,0,3.96-6.141,0-6.141C373.217,83.434,373.217,89.574,377.177,89.574
								L377.177,89.574z"/>
						</g>
					</g>
					<g>
						<g>
							<path fill="#FFFFFF" d="M427.154,98.123c3.96,0,3.96-6.141,0-6.141C423.194,91.982,423.194,98.123,427.154,98.123
								L427.154,98.123z"/>
						</g>
					</g>
					<g>
						<g>
							<path fill="#FFFFFF" d="M412.029,63.27c3.96,0,3.96-6.141,0-6.141C408.069,57.129,408.069,63.27,412.029,63.27L412.029,63.27
								z"/>
						</g>
					</g>
					<g>
						<g>
							<path fill="#FFFFFF" d="M319.09,116.753c0-0.136,0-0.271,0-0.407c0-3.96-6.141-3.96-6.141,0c0,0.136,0,0.271,0,0.407
								C312.95,120.713,319.09,120.713,319.09,116.753c0-0.136,0-0.271,0-0.407c0-3.96-6.141-3.96-6.141,0c0,0.136,0,0.271,0,0.407
								C312.95,120.713,319.09,120.713,319.09,116.753L319.09,116.753z"/>
						</g>
					</g>
					<g>
						<g>
							<path fill="#FFFFFF" d="M275.25,66.558c0.219,0,0.438,0,0.658,0c1.674,0,3.07-1.396,3.07-3.07s-1.397-3.07-3.07-3.07
								c-0.219,0-0.439,0-0.658,0c-1.674,0-3.07,1.396-3.07,3.07S273.576,66.558,275.25,66.558L275.25,66.558z"/>
						</g>
					</g>
					<g>
						<g>
							<path fill="#FFFFFF" d="M244.343,62.613c3.96,0,3.96-6.141,0-6.141C240.383,56.472,240.383,62.613,244.343,62.613
								L244.343,62.613z"/>
						</g>
					</g>
					<g>
						<g>
							<path fill="#FFFFFF" d="M244.343,111.932c0.219,0,0.438,0,0.657,0c1.674,0,3.07-1.396,3.07-3.07
								c0-1.674-1.396-3.07-3.07-3.07c-0.219,0-0.438,0-0.657,0c-1.674,0-3.07,1.396-3.07,3.07
								C241.273,110.536,242.669,111.932,244.343,111.932L244.343,111.932z"/>
						</g>
					</g>
					<g>
						<g>
							<path fill="#FFFFFF" d="M152.937,69.846c0.136,0,0.271,0,0.407,0c3.96,0,3.96-6.141,0-6.141c-0.136,0-0.271,0-0.407,0
								C148.977,63.706,148.977,69.846,152.937,69.846c0.136,0,0.271,0,0.407,0c3.96,0,3.96-6.141,0-6.141c-0.136,0-0.271,0-0.407,0
								C148.977,63.706,148.977,69.846,152.937,69.846L152.937,69.846z"/>
						</g>
					</g>
					<g>
						<g>
							<path fill="#FFFFFF" d="M125.101,82.558c0-0.219,0-0.438,0-0.657c0-1.674-1.396-3.07-3.07-3.07
								c-1.674,0-3.07,1.396-3.07,3.07c0,0.219,0,0.438,0,0.657c0,1.674,1.396,3.07,3.07,3.07
								C123.705,85.628,125.101,84.232,125.101,82.558L125.101,82.558z"/>
						</g>
					</g>
					<g>
						<g>
							<path fill="#FFFFFF" d="M91.144,205.852c1.929-0.005,3.202-1.517,3.299-3.347c0.093-1.746-1.562-3.452-3.318-3.33
								c-1.669,0.116-3.07,1.309-3.07,3.07c0,1.585,1.399,3.186,3.07,3.07c0.024-0.002,0.048-0.003,0.073-0.005
								c-0.272-0.037-0.544-0.073-0.816-0.109c0.02,0.007,0.04,0.014,0.061,0.021c-0.452-0.263-0.903-0.526-1.355-0.79
								c0.016,0.014,0.032,0.028,0.048,0.042c-0.16-0.207-0.32-0.414-0.48-0.621c0.012,0.019,0.023,0.039,0.035,0.058
								c-0.103-0.245-0.206-0.489-0.31-0.733c0.008,0.023,0.015,0.046,0.022,0.069c-0.037-0.272-0.073-0.544-0.109-0.816
								c0.01,0.05,0.012,0.1,0.005,0.149c0.036-0.272,0.073-0.544,0.109-0.816c-0.006,0.023-0.012,0.047-0.017,0.07
								c0.103-0.245,0.206-0.489,0.309-0.733c-0.01,0.02-0.021,0.04-0.031,0.061c0.16-0.207,0.32-0.415,0.48-0.622
								c-0.015,0.015-0.03,0.03-0.045,0.045c0.207-0.16,0.414-0.32,0.622-0.48c-0.02,0.009-0.04,0.017-0.059,0.025
								c0.517-0.14,1.033-0.279,1.55-0.419c-0.024,0-0.049,0-0.073,0c-1.673,0.004-3.07,1.394-3.07,3.07
								C88.074,204.452,89.47,205.856,91.144,205.852L91.144,205.852z"/>
						</g>
					</g>
					<g>
						<g>
							<path fill="#FFFFFF" d="M161.147,254.345c0.288-1.051,0.146-2.117-0.352-3.081c-0.52-1.005-1.418-1.593-2.45-1.967
								c-1.575-0.571-3.36,0.627-3.777,2.144c-0.471,1.711,0.573,3.207,2.144,3.777c0.039,0.014,0.077,0.028,0.115,0.042
								c-0.245-0.104-0.489-0.207-0.733-0.31c0.075,0.033,0.143,0.076,0.207,0.127c-0.208-0.16-0.415-0.32-0.622-0.48
								c0.063,0.052,0.12,0.111,0.169,0.176c-0.16-0.207-0.32-0.414-0.48-0.621c0.049,0.066,0.091,0.136,0.125,0.211
								c-0.103-0.244-0.206-0.489-0.31-0.733c0.034,0.075,0.059,0.153,0.074,0.233c-0.037-0.272-0.073-0.544-0.11-0.816
								c0.017,0.128,0.018,0.236,0.001,0.363c0.037-0.272,0.073-0.544,0.11-0.816c-0.011,0.039-0.021,0.079-0.032,0.118
								c-0.441,1.614,0.53,3.333,2.144,3.777C158.982,256.932,160.707,255.958,161.147,254.345L161.147,254.345z"/>
						</g>
					</g>
					<g>
						<g>
							<path fill="#FFFFFF" d="M113.565,293.912c0.22-0.439,0.44-0.877,0.66-1.314c0.751-1.496,0.41-3.316-1.101-4.201
								c-1.374-0.805-3.45-0.393-4.201,1.101c-0.22,0.438-0.44,0.876-0.66,1.314c-0.75,1.497-0.41,3.315,1.101,4.201
								C110.738,295.818,112.815,295.407,113.565,293.912L113.565,293.912z"/>
						</g>
					</g>
					<g>
						<g>
							<path fill="#FFFFFF" d="M54.081,265.369c0-0.219,0-0.438,0-0.658c0-1.674-1.396-3.07-3.07-3.07
								c-1.674,0-3.07,1.397-3.07,3.07c0,0.219,0,0.439,0,0.658c0,1.674,1.396,3.07,3.07,3.07
								C52.684,268.439,54.081,267.043,54.081,265.369L54.081,265.369z"/>
						</g>
					</g>
					<g>
						<g>
							<path fill="#FFFFFF" d="M53.423,326.524c0-0.219,0-0.438,0-0.657c0-1.674-1.396-3.07-3.07-3.07
								c-1.674,0-3.07,1.397-3.07,3.07c0,0.219,0,0.438,0,0.657c0,1.674,1.396,3.07,3.07,3.07
								C52.026,329.595,53.423,328.198,53.423,326.524L53.423,326.524z"/>
						</g>
					</g>
					<g>
						<g>
							<path fill="#FFFFFF" d="M196.778,346.91c0-0.219,0-0.438,0-0.657c0-1.674-1.396-3.07-3.07-3.07s-3.07,1.397-3.07,3.07
								c0,0.219,0,0.438,0,0.657c0,1.674,1.396,3.07,3.07,3.07S196.778,348.584,196.778,346.91L196.778,346.91z"/>
						</g>
					</g>
					<g>
						<g>
							<path fill="#FFFFFF" d="M395.372,355.46c0-0.219,0-0.439,0-0.658c0-1.674-1.396-3.07-3.07-3.07
								c-1.674,0-3.07,1.396-3.07,3.07c0,0.219,0,0.439,0,0.658c0,1.674,1.396,3.07,3.07,3.07
								C393.975,358.53,395.372,357.133,395.372,355.46L395.372,355.46z"/>
						</g>
					</g>
					<g>
						<g>
							<path fill="#FFFFFF" d="M518.56,317.758c3.96,0,3.96-6.141,0-6.141C514.6,311.618,514.6,317.758,518.56,317.758
								L518.56,317.758z"/>
						</g>
					</g>
					<g>
						<g>
							<path fill="#FFFFFF" d="M603.828,297.591c0-0.219,0-0.439,0-0.658c0-1.674-1.396-3.07-3.07-3.07
								c-1.674,0-3.07,1.396-3.07,3.07c0,0.219,0,0.439,0,0.658c0,1.674,1.396,3.07,3.07,3.07
								C602.432,300.662,603.828,299.265,603.828,297.591L603.828,297.591z"/>
						</g>
					</g>
					<g>
						<g>
							<path fill="#FFFFFF" d="M734.249,321.704c3.96,0,3.96-6.141,0-6.141C730.289,315.564,730.289,321.704,734.249,321.704
								L734.249,321.704z"/>
						</g>
					</g>
					<g>
						<g>
							<path fill="#FFFFFF" d="M769.102,213.859c0.22,0,0.438,0,0.658,0c1.674,0,3.07-1.396,3.07-3.07c0-1.674-1.396-3.07-3.07-3.07
								c-0.22,0-0.438,0-0.658,0c-1.674,0-3.07,1.396-3.07,3.07C766.032,212.463,767.429,213.859,769.102,213.859L769.102,213.859z"
								/>
						</g>
					</g>
					<g>
						<g>
							<path fill="#FFFFFF" d="M677.697,184.267c3.96,0,3.96-6.141,0-6.141C673.737,178.126,673.737,184.267,677.697,184.267
								L677.697,184.267z"/>
						</g>
					</g>
					<g>
						<g>
							<path fill="#FFFFFF" d="M772.849,135.363c0.22,0.219,0.439,0.438,0.658,0.658c1.182,1.184,3.16,1.182,4.342,0
								c1.184-1.184,1.182-3.158,0-4.342c-0.219-0.22-0.438-0.439-0.658-0.658c-1.184-1.181-3.157-1.184-4.342,0
								C771.667,132.203,771.664,134.182,772.849,135.363L772.849,135.363z"/>
						</g>
					</g>
					<g>
						<g>
							<path fill="#FFFFFF" d="M778.967,100.753c0.136,0,0.271,0,0.406,0c3.96,0,3.96-6.141,0-6.141c-0.135,0-0.271,0-0.406,0
								C775.007,94.612,775.007,100.753,778.967,100.753c0.136,0,0.271,0,0.406,0c3.96,0,3.96-6.141,0-6.141
								c-0.135,0-0.271,0-0.406,0C775.007,94.612,775.007,100.753,778.967,100.753L778.967,100.753z"/>
						</g>
					</g>
					<g>
						<g>
							<path fill="#FFFFFF" d="M887.469,111.932c0.22,0,0.438,0,0.658,0c1.674,0,3.07-1.396,3.07-3.07c0-1.674-1.396-3.07-3.07-3.07
								c-0.22,0-0.438,0-0.658,0c-1.674,0-3.07,1.396-3.07,3.07C884.398,110.536,885.795,111.932,887.469,111.932L887.469,111.932z"
								/>
						</g>
					</g>
					<g>
						<g>
							<path fill="#FFFFFF" d="M867.301,76.64c0,0.136,0,0.271,0,0.407c0,3.96,6.141,3.96,6.141,0c0-0.136,0-0.271,0-0.407
								C873.441,72.68,867.301,72.68,867.301,76.64c0,0.136,0,0.271,0,0.407c0,3.96,6.141,3.96,6.141,0c0-0.136,0-0.271,0-0.407
								C873.441,72.68,867.301,72.68,867.301,76.64L867.301,76.64z"/>
						</g>
					</g>
					<g>
						<g>
							<path fill="#FFFFFF" d="M892.565,217.371c0.024-0.217,0.048-0.433,0.071-0.65c0.181-1.668-1.533-3.07-3.07-3.07
								c-0.81,0-1.598,0.326-2.171,0.899c-0.623,0.623-0.808,1.325-0.899,2.171c-0.023,0.217-0.047,0.433-0.071,0.65
								c-0.085,0.764,0.379,1.65,0.899,2.171c0.573,0.573,1.359,0.899,2.171,0.899c0.812,0,1.598-0.326,2.171-0.899
								C892.291,218.917,892.471,218.217,892.565,217.371L892.565,217.371z"/>
						</g>
					</g>
					<g>
						<g>
							<path fill="#FFFFFF" d="M970.983,69.624c-0.438,0-0.877,0-1.315,0c-1.674,0-3.07,1.397-3.07,3.07
								c0,1.674,1.396,3.07,3.07,3.07c0.438,0,0.877,0,1.315,0c1.674,0,3.07-1.396,3.07-3.07
								C974.054,71.021,972.657,69.624,970.983,69.624L970.983,69.624z"/>
						</g>
					</g>
					<g>
						<g>
							<path fill="#FFFFFF" d="M1073.567,91.325c-0.219,0-0.438,0-0.657,0c-1.674,0-3.07,1.396-3.07,3.07
								c0,1.674,1.397,3.07,3.07,3.07c0.219,0,0.438,0,0.657,0c1.674,0,3.07-1.396,3.07-3.07
								C1076.638,92.721,1075.241,91.325,1073.567,91.325L1073.567,91.325z"/>
						</g>
					</g>
					<g>
						<g>
							<path fill="#FFFFFF" d="M1055.158,174.367c0.973-0.005,1.801-0.371,2.512-1.03c0.738-0.685,0.968-1.647,1.059-2.604
								c0.094-0.994-0.436-1.888-1.012-2.628c-0.576-0.742-1.651-1.082-2.556-1.089c-1.674-0.015-3.07,1.408-3.07,3.07
								c0,1.685,1.396,3.056,3.07,3.07c0.027,0,0.056,0,0.083,0c-0.271-0.037-0.544-0.073-0.816-0.109
								c0.051,0.005,0.099,0.019,0.144,0.042c-0.244-0.103-0.489-0.206-0.733-0.309c0.021,0.013,0.04,0.026,0.061,0.039
								c-0.207-0.16-0.414-0.32-0.621-0.48c0.038,0.031,0.07,0.067,0.098,0.108c-0.16-0.208-0.32-0.415-0.48-0.622
								c0.013,0.022,0.025,0.043,0.038,0.065c-0.104-0.244-0.206-0.489-0.31-0.733c0.032,0.076,0.052,0.146,0.068,0.228
								c-0.036-0.272-0.073-0.544-0.109-0.816c0.007,0.085,0.007,0.162-0.001,0.246c0.037-0.272,0.073-0.544,0.109-0.816
								c-0.007,0.053-0.019,0.105-0.038,0.156c0.104-0.244,0.207-0.489,0.31-0.733c-0.017,0.049-0.04,0.094-0.068,0.137
								c0.16-0.207,0.32-0.414,0.48-0.622c-0.027,0.041-0.06,0.077-0.099,0.107c0.207-0.16,0.414-0.32,0.621-0.48
								c-0.02,0.013-0.04,0.026-0.061,0.039c0.245-0.104,0.489-0.206,0.733-0.31c-0.045,0.023-0.093,0.037-0.144,0.042
								c0.272-0.037,0.544-0.073,0.816-0.11c-0.027,0.001-0.056,0.001-0.083,0.001c-1.674,0.009-3.07,1.39-3.07,3.07
								C1052.088,172.964,1053.484,174.376,1055.158,174.367L1055.158,174.367z"/>
						</g>
					</g>
					<g>
						<g>
							<path fill="#FFFFFF" d="M1147.659,235.12c0-0.219,0-0.438,0-0.658c0-1.674-1.396-3.07-3.07-3.07
								c-1.674,0-3.07,1.396-3.07,3.07c0,0.219,0,0.438,0,0.658c0,1.674,1.396,3.07,3.07,3.07
								C1146.263,238.19,1147.659,236.794,1147.659,235.12L1147.659,235.12z"/>
						</g>
					</g>
					<g>
						<g>
							<path fill="#FFFFFF" d="M1102.7,291.871c0.22-0.219,0.438-0.438,0.658-0.657c1.186-1.181,1.181-3.161,0-4.342
								c-1.185-1.185-3.156-1.181-4.342,0c-0.22,0.219-0.44,0.438-0.658,0.657c-1.184,1.183-1.183,3.159,0,4.342
								C1099.541,293.054,1101.518,293.053,1102.7,291.871L1102.7,291.871z"/>
						</g>
					</g>
					<g>
						<g>
							<path fill="#FFFFFF" d="M1131.529,353.872c-0.223-0.436-0.445-0.873-0.667-1.31c-0.757-1.491-2.822-1.909-4.201-1.101
								c-1.506,0.882-1.858,2.708-1.102,4.201c0.222,0.436,0.444,0.873,0.667,1.31c0.761,1.489,2.819,1.91,4.201,1.101
								C1131.932,357.192,1132.29,355.363,1131.529,353.872L1131.529,353.872z"/>
						</g>
					</g>
					<g>
						<g>
							<path fill="#FFFFFF" d="M1048.777,414.842c0.22-0.22,0.44-0.44,0.658-0.66c1.18-1.186,1.185-3.157,0-4.342
								c-1.181-1.181-3.162-1.186-4.342,0c-0.219,0.22-0.439,0.439-0.658,0.66c-1.182,1.185-1.184,3.158,0,4.342
								C1045.617,416.023,1047.597,416.026,1048.777,414.842L1048.777,414.842z"/>
						</g>
					</g>
					<g>
						<g>
							<path fill="#FFFFFF" d="M959.587,308.113c0-0.219,0-0.439,0-0.658c0-1.674-1.397-3.07-3.07-3.07
								c-1.674,0-3.07,1.396-3.07,3.07c0,0.219,0,0.439,0,0.658c0,1.674,1.396,3.07,3.07,3.07
								C958.19,311.183,959.587,309.787,959.587,308.113L959.587,308.113z"/>
						</g>
					</g>
					<g>
						<g>
							<path fill="#FFFFFF" d="M665.44,103.894c0.533,0,1.067,0,1.601,0c3.96,0,3.96-6.141,0-6.141c-0.533,0-1.067,0-1.601,0
								C661.48,97.753,661.48,103.894,665.44,103.894c0.533,0,1.067,0,1.601,0c3.96,0,3.96-6.141,0-6.141c-0.533,0-1.067,0-1.601,0
								C661.48,97.753,661.48,103.894,665.44,103.894L665.44,103.894z"/>
						</g>
					</g>
					<g>
						<g>
							<path fill="#FFFFFF" d="M622.276,139.756c0.845-0.12,1.689-0.239,2.535-0.358c0.74-0.104,1.476-0.797,1.835-1.411
								c0.415-0.709,0.527-1.574,0.31-2.366c-0.212-0.767-0.725-1.433-1.411-1.834c-0.782-0.458-1.507-0.431-2.366-0.31
								c-0.845,0.119-1.689,0.238-2.535,0.358c-0.74,0.104-1.476,0.797-1.835,1.411c-0.415,0.709-0.527,1.574-0.31,2.366
								c0.212,0.767,0.725,1.433,1.411,1.834C620.691,139.905,621.417,139.878,622.276,139.756L622.276,139.756z"/>
						</g>
					</g>
				</g>
			</g>
			<g clip-path="url(#SVGID_2_)">
				<defs>
					<rect id="SVGID_8_" x="7.036" y="-1.354" width="1210.066" height="764.291"/>
				</defs>
				<clipPath id="SVGID_9_">
					<use xlink:href="#SVGID_8_"  overflow="visible"/>
				</clipPath>
			</g>
			<rect x="0" y="511.242" clip-path="url(#SVGID_2_)" fill="#5384C9" width="1224.138" height="345.939"/>
			<g clip-path="url(#SVGID_2_)">
				<rect x="0" y="494.138" fill="#6B9FDD" width="1224.138" height="17.104"/>
				<rect x="0" y="481.273" fill="#65A8EA" width="1224.138" height="12.865"/>
			</g>
			<g clip-path="url(#SVGID_2_)">
				<defs>
					<rect id="SVGID_10_" x="0" y="0" width="1224.138" height="857.181"/>
				</defs>
				<clipPath id="SVGID_11_">
					<use xlink:href="#SVGID_10_"  overflow="visible"/>
				</clipPath>
			</g>
		</g>
	</g>
</g>
<g id="Layer_3" display="none">
	<g display="inline">
		<polygon opacity="0.6" fill="#3B6487" points="1272.142,374.623 1239.802,428.442 1216.09,342.504 1194.529,401.006 
			1168.656,262.208 1134.164,397.565 1123.386,376.917 1082.423,481.76 1054.396,370.034 1030.683,428.968 1015.591,365.447 
			935.826,408.415 907.796,310.386 864.679,418.214 825.875,351.681 769.822,395.27 724.546,277.026 670.652,419.359 
			662.027,392.976 636.157,428.442 618.911,298.914 597.405,378.438 567.359,428.442 543.645,342.504 522.086,401.006 
			496.213,262.208 461.721,397.565 450.942,376.917 409.979,481.76 381.952,370.034 358.238,428.968 343.146,365.447 
			263.382,408.415 235.353,310.386 192.236,418.214 153.431,351.681 97.377,395.27 52.103,277.026 -1.792,419.359 -10.417,392.976 
			-36.288,428.442 -53.534,298.914 -96.651,458.36 -100.732,436.33 -100.732,615.512 571.71,615.512 601.149,615.512 
			1273.593,615.512 1273.593,379.016 		"/>
		<polygon fill="#3B6487" points="1237.587,561.57 1214.546,496.534 1187.956,537.768 1168.46,471.928 1150.734,516.749 
			1129.462,410.406 1101.104,514.112 1092.242,498.292 1058.564,578.622 1035.519,493.019 1016.022,538.173 1003.614,489.503 
			938.033,522.425 914.989,447.318 879.537,529.933 847.631,478.957 801.546,512.354 764.323,421.759 720.009,530.811 
			712.918,510.597 691.649,537.768 677.469,438.528 642.02,560.693 629.612,498.292 601.149,558.698 601.149,438.528 
			571.934,538.372 571.636,537.768 571.636,539.387 565.143,561.57 542.101,496.534 515.513,537.768 496.015,471.928 
			478.291,516.749 457.019,410.406 428.66,514.112 419.798,498.292 386.121,578.622 363.077,493.019 343.579,538.173 
			331.171,489.503 265.589,522.425 242.544,447.318 207.094,529.933 175.188,478.957 129.103,512.354 91.878,421.759 
			47.565,530.811 40.475,510.597 19.206,537.768 5.026,438.528 -30.424,560.693 -42.832,498.292 -80.682,578.622 -100.807,537.768 
			-100.807,623.09 -100.807,681.097 571.636,681.097 601.149,681.097 1273.593,681.097 1273.593,438.528 		"/>
	</g>
</g>
<g id="Layer_2">
	<g>
		<rect x="-8.721" y="719.608" fill="#366399" width="1224.138" height="138.278"/>
		<g opacity="0.3">
			<rect x="-8.721" y="785.57" fill="#1D4A77" width="1224.138" height="6.35"/>
			<rect x="-28.119" y="746.875" fill="#1D4A77" width="1224.137" height="6.348"/>
			<rect x="75.898" y="815.53" fill="#1D4A77" width="1224.139" height="6.35"/>
		</g>
	</g>
	<g>
		<g>
			<rect x="862.39" y="-0.647" fill="#264675" width="93.113" height="823.075"/>
			<rect x="908.948" y="-0.647" fill="#00284F" width="46.556" height="823.075"/>
			<polygon fill="#00284F" points="932.227,140.138 862.39,92.52 862.39,-0.647 908.948,-0.647 			"/>
			<path fill="#264675" d="M699.936-14.275h49.544c-8.599,19.642-13.375,41.338-13.375,64.153
				c0,88.08,71.111,159.542,159.051,160.132v46.345c-113.539-0.59-205.397-92.801-205.397-206.477
				C689.758,27.479,693.336,5.919,699.936-14.275z"/>
			<path fill="#00284F" d="M1091.009,254.623l-20.01-18.897c-4.018,11.214-10.363,21.797-19.065,31.011
				c-33.595,35.572-89.57,37.31-125.309,4.008l-17.678,18.715c46.077,43.067,118.345,40.863,161.704-5.047
				C1079.194,275.367,1085.972,265.295,1091.009,254.623z"/>
			<polygon fill="#00284F" points="933.074,122.17 977.934,98.57 977.934,119.409 945.495,163.579 			"/>
			<polygon fill="#264675" points="878.145,429.13 756.569,391.861 756.569,429.13 878.145,511.948 			"/>
		</g>
		<g>
			<path fill="#426FA5" d="M891.382,150.994c0,0,3.59,24.459-28.738,33.531C862.644,184.525,856.801,157.715,891.382,150.994z"/>
			<path fill="#426FA5" d="M939.331,220.268c0,0,24.497,3.333,24.248,36.911C963.58,257.179,936.2,255.358,939.331,220.268z"/>
			<path fill="#00284F" d="M832.574,385.716c0,0-9.642-22.764,19.354-39.697C851.928,346.019,864.343,370.489,832.574,385.716z"/>
			<path fill="#264675" d="M938.555,477.962c0,0-24.198,5.058-35.202-26.666C903.353,451.296,929.76,443.848,938.555,477.962z"/>
		</g>
		<g>
			<g>
				<g>
					<path fill="#00284F" d="M1056.953,256.525c4.669-7.24,7.391-15.857,7.391-25.112c0-25.629-20.776-46.406-46.407-46.406
						c-25.626,0-46.404,20.776-46.404,46.406c0,9.255,2.723,17.872,7.393,25.112H1056.953z"/>
					<path fill="#00284F" d="M1148.609,256.525c8.458-12.02,13.44-26.661,13.44-42.474c0-40.821-33.093-73.912-73.91-73.912
						c-40.823,0-73.914,33.091-73.914,73.912c0,15.814,4.983,30.454,13.441,42.474H1148.609z"/>
					<path fill="#00284F" d="M1206.906,256.525c2.307-6.131,3.58-12.769,3.58-19.707c0-30.913-25.062-55.973-55.975-55.973
						c-30.912,0-55.972,25.06-55.972,55.973c0,6.938,1.271,13.576,3.576,19.707H1206.906z"/>
				</g>
			</g>
			<path fill="#264675" d="M1062.608,230.901c0,2.914-2.36,5.271-5.27,5.271s-5.271-2.358-5.271-5.271
				c0-2.907,2.362-5.266,5.271-5.266S1062.608,227.995,1062.608,230.901z"/>
			<path fill="#264675" d="M1053.557,190.271c0,3.737-3.025,6.762-6.757,6.762c-3.733,0-6.764-3.025-6.764-6.762
				c0-3.729,3.03-6.755,6.764-6.755C1050.532,183.516,1053.557,186.542,1053.557,190.271z"/>
			<path fill="#264675" d="M991.93,248.284c0,1.908-1.544,3.453-3.449,3.453c-1.905,0-3.453-1.544-3.453-3.453
				c0-1.904,1.548-3.449,3.453-3.449C990.386,244.835,991.93,246.38,991.93,248.284z"/>
			<path fill="#264675" d="M1151.543,188.836c0,2.914-2.358,5.272-5.267,5.272c-2.909,0-5.271-2.358-5.271-5.272
				c0-2.906,2.362-5.265,5.271-5.265C1149.185,183.571,1151.543,185.93,1151.543,188.836z"/>
			<path fill="#264675" d="M1135.148,238.18c0,5.584-4.523,10.105-10.097,10.105c-5.581,0-10.107-4.521-10.107-10.105
				c0-5.572,4.526-10.093,10.107-10.093C1130.624,228.087,1135.148,232.608,1135.148,238.18z"/>
			<path fill="#264675" d="M1101.624,175.821c-5.27,5.781-14.87,5.612-14.87,5.612s-1.056-9.551,4.211-15.331
				c5.277-5.782,14.873-5.611,14.873-5.611S1106.9,170.039,1101.624,175.821z"/>
			<path fill="#264675" d="M1137.715,217.941c-8.292-4.857-10.54-16.436-10.54-16.436s11.203-3.708,19.493,1.145
				c8.294,4.862,10.542,16.433,10.542,16.433S1146.012,222.802,1137.715,217.941z"/>
			<path fill="#264675" d="M1023.501,232.527c-7.479,6.036-19.102,4.037-19.102,4.037s0.501-11.792,7.977-17.824
				c7.483-6.035,19.102-4.036,19.102-4.036S1030.989,226.493,1023.501,232.527z"/>
			<path fill="#264675" d="M1099.279,233.627c-4.011,3.235-10.24,2.164-10.24,2.164s0.271-6.322,4.275-9.554
				c4.012-3.236,10.239-2.163,10.239-2.163S1103.29,230.393,1099.279,233.627z"/>
			<path fill="#264675" d="M1176.37,241.163c-4.643-2.23-6.354-8.317-6.354-8.317s5.822-2.473,10.466-0.245
				c4.646,2.233,6.351,8.317,6.351,8.317S1181.015,243.396,1176.37,241.163z"/>
		</g>
		<g>
			<g>
				<g>
					<path fill="#00284F" d="M-41.899,262.048c4.959-7.691,7.851-16.843,7.851-26.676c0-27.226-22.071-49.297-49.298-49.297
						c-27.222,0-49.295,22.071-49.295,49.297c0,9.833,2.893,18.984,7.853,26.676H-41.899z"/>
					<path fill="#00284F" d="M55.465,262.048c8.984-12.768,14.277-28.322,14.277-45.12c0-43.364-35.154-78.516-78.514-78.516
						c-43.365,0-78.517,35.152-78.517,78.516c0,16.798,5.294,32.352,14.278,45.12H55.465z"/>
					<path fill="#00284F" d="M117.393,262.048c2.449-6.514,3.802-13.564,3.802-20.935c0-32.838-26.622-59.459-59.461-59.459
						c-32.838,0-59.459,26.621-59.459,59.459c0,7.371,1.35,14.421,3.8,20.935H117.393z"/>
				</g>
			</g>
			<path fill="#264675" d="M-35.893,234.829c0,3.095-2.507,5.6-5.597,5.6c-3.091,0-5.6-2.505-5.6-5.6c0-3.087,2.508-5.593,5.6-5.593
				C-38.4,229.236-35.893,231.742-35.893,234.829z"/>
			<path fill="#264675" d="M-45.507,191.668c0,3.969-3.214,7.183-7.177,7.183c-3.966,0-7.185-3.214-7.185-7.183
				c0-3.961,3.22-7.176,7.185-7.176C-48.722,184.492-45.507,187.707-45.507,191.668z"/>
			<path fill="#264675" d="M-110.973,253.294c0,2.027-1.641,3.668-3.665,3.668s-3.668-1.641-3.668-3.668
				c0-2.021,1.644-3.664,3.668-3.664S-110.973,251.273-110.973,253.294z"/>
			<path fill="#264675" d="M58.581,190.144c0,3.094-2.504,5.6-5.593,5.6c-3.092,0-5.601-2.506-5.601-5.6
				c0-3.087,2.509-5.592,5.601-5.592C56.077,184.552,58.581,187.057,58.581,190.144z"/>
			<path fill="#264675" d="M41.165,242.561c0,5.933-4.806,10.735-10.726,10.735c-5.928,0-10.736-4.802-10.736-10.735
				c0-5.919,4.808-10.722,10.736-10.722C36.359,231.839,41.165,236.642,41.165,242.561z"/>
			<path fill="#264675" d="M5.555,176.318c-5.599,6.141-15.798,5.962-15.798,5.962s-1.121-10.146,4.474-16.286
				c5.605-6.143,15.799-5.96,15.799-5.96S11.159,170.176,5.555,176.318z"/>
			<path fill="#264675" d="M43.893,221.062c-8.809-5.16-11.198-17.46-11.198-17.46s11.902-3.939,20.708,1.216
				c8.811,5.164,11.199,17.457,11.199,17.457S52.706,226.225,43.893,221.062z"/>
			<path fill="#264675" d="M-77.435,236.557c-7.946,6.411-20.292,4.287-20.292,4.287s0.531-12.525,8.472-18.934
				c7.951-6.411,20.292-4.287,20.292-4.287S-69.482,230.146-77.435,236.557z"/>
			<path fill="#264675" d="M3.061,237.725c-4.259,3.437-10.877,2.299-10.877,2.299s0.287-6.715,4.541-10.149
				c4.262-3.436,10.877-2.298,10.877-2.298S7.323,234.29,3.061,237.725z"/>
			<path fill="#264675" d="M84.956,245.73c-4.931-2.369-6.749-8.835-6.749-8.835s6.185-2.627,11.117-0.26
				c4.935,2.372,6.748,8.834,6.748,8.834S89.889,248.102,84.956,245.73z"/>
		</g>
		<g>
			<g>
				<g>
					<path fill="#00284F" d="M13.651,70.345C22.555,56.534,27.747,40.1,27.747,22.447c0-48.885-39.629-88.513-88.516-88.513
						c-48.878,0-88.51,39.628-88.51,88.513c0,17.653,5.194,34.087,14.1,47.898H13.651z"/>
					<path fill="#00284F" d="M188.469,70.345c16.132-22.926,25.636-50.853,25.636-81.015c0-77.86-63.12-140.976-140.974-140.976
						c-77.863,0-140.979,63.116-140.979,140.976c0,30.162,9.505,58.088,25.637,81.015H188.469z"/>
					<path fill="#00284F" d="M299.664,70.345c4.398-11.695,6.826-24.356,6.826-37.589c0-58.962-47.799-106.76-106.763-106.76
						c-58.961,0-106.759,47.798-106.759,106.76c0,13.234,2.423,25.894,6.823,37.589H299.664z"/>
				</g>
			</g>
			<path fill="#264675" d="M24.434,21.471c0,5.557-4.502,10.055-10.049,10.055c-5.551,0-10.055-4.498-10.055-10.055
				c0-5.544,4.504-10.042,10.055-10.042C19.932,11.429,24.434,15.927,24.434,21.471z"/>
			<path fill="#264675" d="M7.171-56.026c0,7.127-5.771,12.898-12.886,12.898c-7.121,0-12.902-5.771-12.902-12.898
				c0-7.112,5.782-12.885,12.902-12.885C1.4-68.911,7.171-63.138,7.171-56.026z"/>
			<path fill="#264675" d="M-110.373,54.626c0,3.64-2.946,6.585-6.581,6.585c-3.634,0-6.585-2.946-6.585-6.585
				c0-3.631,2.951-6.579,6.585-6.579C-113.319,48.047-110.373,50.995-110.373,54.626z"/>
			<path fill="#264675" d="M194.065-58.762c0,5.556-4.497,10.055-10.043,10.055c-5.55,0-10.056-4.498-10.056-10.055
				c0-5.543,4.506-10.041,10.056-10.041C189.568-68.803,194.065-64.305,194.065-58.762z"/>
			<path fill="#264675" d="M162.793,35.355c0,10.65-8.628,19.274-19.258,19.274c-10.643,0-19.277-8.624-19.277-19.274
				c0-10.628,8.633-19.252,19.277-19.252C154.165,16.103,162.793,24.727,162.793,35.355z"/>
			<path fill="#264675" d="M98.855-83.586C88.802-72.56,70.489-72.882,70.489-72.882s-2.013-18.217,8.032-29.241
				c10.065-11.029,28.368-10.702,28.368-10.702S108.917-94.615,98.855-83.586z"/>
			<path fill="#264675" d="M167.692-3.248c-15.816-9.265-20.105-31.349-20.105-31.349s21.37-7.073,37.181,2.183
				c15.821,9.273,20.108,31.344,20.108,31.344S183.516,6.023,167.692-3.248z"/>
			<path fill="#264675" d="M-50.155,24.573c-14.266,11.512-36.433,7.698-36.433,7.698s0.954-22.49,15.211-33.997
				C-57.1-13.237-34.943-9.424-34.943-9.424S-35.875,13.063-50.155,24.573z"/>
			<path fill="#264675" d="M94.378,26.671c-7.647,6.17-19.531,4.126-19.531,4.126S75.362,18.741,83,12.575
				c7.652-6.17,19.531-4.126,19.531-4.126S102.03,20.502,94.378,26.671z"/>
			<path fill="#264675" d="M241.421,41.044c-8.854-4.253-12.118-15.862-12.118-15.862s11.105-4.717,19.96-0.468
				c8.86,4.26,12.116,15.862,12.116,15.862S250.279,45.303,241.421,41.044z"/>
		</g>
	</g>
	<path fill="#00284F" d="M772.179,662.928l17.597-1.905c-2.747-6.271-6.828-11.819-11.89-16.299L754.87,659.89l15.923-20.348
		c-6.805-4.044-14.722-6.409-23.18-6.533l-4.439,11.21l1.863-11.178c-5.144,0.203-10.074,1.234-14.661,2.971l5.313,19.432
		l-10.228-17.236c-3.887,2.008-7.455,4.548-10.611,7.521l4.467,7.38l-6.482-5.365c-2.565,2.732-4.808,5.77-6.666,9.055
		l23.908,13.618l-26.638-7.909c-2.124,5.346-3.304,11.166-3.304,17.267c0,1.021,0.046,2.033,0.109,3.04h93.34
		c0.065-1.007,0.109-2.019,0.109-3.04c0-4.478-0.642-8.804-1.818-12.903L772.179,662.928z"/>
	<path fill="#264675" d="M500.777,556.689l15.05-1.63c-2.351-5.362-5.84-10.106-10.168-13.938l-19.684,12.969l13.617-17.399
		c-5.819-3.46-12.588-5.482-19.822-5.587l-3.796,9.585l1.594-9.559c-4.4,0.175-8.616,1.057-12.538,2.542l4.545,16.617l-8.748-14.742
		c-3.324,1.719-6.376,3.891-9.075,6.433l3.82,6.312l-5.542-4.589c-2.195,2.336-4.112,4.936-5.7,7.745l20.444,11.644l-22.78-6.763
		c-1.815,4.571-2.825,9.551-2.825,14.768c0,0.873,0.04,1.737,0.094,2.599h79.823c0.055-0.861,0.093-1.726,0.093-2.599
		c0-3.83-0.549-7.53-1.554-11.035L500.777,556.689z"/>
	<path fill="#264675" d="M837.747,563.125l10.328-1.119c-1.612-3.68-4.006-6.939-6.976-9.565l-13.511,8.898l9.344-11.938
		c-3.991-2.377-8.638-3.765-13.602-3.837l-2.604,6.58l1.094-6.562c-3.018,0.118-5.912,0.726-8.604,1.745l3.117,11.402l-6.002-10.116
		c-2.281,1.181-4.376,2.67-6.229,4.414l2.623,4.332l-3.804-3.147c-1.507,1.602-2.823,3.385-3.911,5.313l14.029,7.99l-15.632-4.64
		c-1.247,3.137-1.94,6.553-1.94,10.132c0,0.602,0.026,1.194,0.065,1.784h54.78c0.039-0.59,0.063-1.183,0.063-1.784
		c0-2.627-0.376-5.166-1.065-7.568L837.747,563.125z"/>
	<path fill="#264675" d="M1145.532,550.733l10.328-1.12c-1.612-3.681-4.009-6.939-6.979-9.566l-13.505,8.901l9.343-11.941
		c-3.996-2.374-8.64-3.763-13.604-3.837l-2.604,6.583l1.092-6.564c-3.019,0.12-5.912,0.726-8.604,1.745l3.118,11.402l-6.001-10.116
		c-2.282,1.18-4.375,2.671-6.229,4.414l2.624,4.331l-3.806-3.148c-1.503,1.603-2.821,3.388-3.911,5.315l14.031,7.992l-15.634-4.641
		c-1.247,3.136-1.938,6.551-1.938,10.131c0,0.602,0.024,1.194,0.063,1.785h54.78c0.039-0.591,0.063-1.184,0.063-1.785
		c0-2.627-0.376-5.166-1.065-7.569L1145.532,550.733z"/>
	<path fill="#00284F" d="M64.023,555.468l15.25-1.653c-2.381-5.434-5.917-10.243-10.305-14.123l-19.946,13.143L62.821,535.2
		c-5.897-3.504-12.756-5.555-20.088-5.662l-3.845,9.714l1.615-9.688c-4.458,0.175-8.729,1.071-12.706,2.576l4.605,16.84
		l-8.861-14.939c-3.371,1.741-6.461,3.941-9.198,6.521l3.872,6.392l-5.616-4.646c-2.223,2.367-4.167,5.001-5.776,7.846
		l20.719,11.801l-23.084-6.851c-1.842,4.631-2.864,9.674-2.864,14.959c0,0.886,0.039,1.763,0.094,2.636h80.89
		c0.057-0.873,0.095-1.75,0.095-2.636c0-3.88-0.557-7.627-1.575-11.18L64.023,555.468z"/>
	<g>
		<rect x="182.505" y="-3.946" fill="#264675" width="149.067" height="831.321"/>
		<rect x="182.505" y="-3.946" fill="#00284F" width="74.534" height="831.321"/>
		<polygon fill="#00284F" points="219.771,145.086 331.572,97.466 331.572,-3.946 257.039,-3.946 		"/>
		<path fill="#00284F" d="M-81.038,219.142l36.019-34.018c7.235,20.185,18.659,39.239,34.324,55.826
			c60.478,64.036,161.243,67.165,225.582,7.212l31.822,33.694c-82.95,77.527-213.047,73.56-291.099-9.085
			C-59.77,256.487-71.972,238.355-81.038,219.142z"/>
		<polygon fill="#00284F" points="199.5,113.842 154.641,90.243 154.641,111.081 187.078,155.251 		"/>
		<g>
			<path fill="#00284F" d="M257.039,439.229v15.788l353.477-142.698v-6.13C544.604,333.887,360.383,396.128,257.039,439.229z"/>
			<path fill="#264675" d="M382.611,364.247l46.027-83.976h-15.396l-77.234,94.711l-78.97,24.419v39.825
				c103.345-43.099,287.566-105.34,353.477-133.038v-1.852L382.611,364.247z"/>
		</g>
		<g>
			<path fill="#264675" d="M314.58,259.704c85.333-85.333,170.667-170.667,256-256c11.468-11.468,11.468-30.627,0-42.095
				c-11.468-11.468-30.627-11.468-42.095,0c-85.334,85.333-170.667,170.667-256,256c-11.468,11.468-11.468,30.627,0,42.095
				C283.953,271.171,303.112,271.171,314.58,259.704L314.58,259.704z"/>
		</g>
	</g>
	<g>
		<path fill="#426FA5" d="M242.541,192.026c0,0-3.59,24.46,28.74,33.532C271.282,225.558,277.123,198.748,242.541,192.026z"/>
		<path fill="#426FA5" d="M194.594,261.301c0,0-24.496,3.333-24.247,36.911C170.347,298.213,197.725,296.392,194.594,261.301z"/>
		<path fill="#00284F" d="M301.35,426.749c0,0,9.643-22.763-19.353-39.696C281.997,387.052,269.581,411.522,301.35,426.749z"/>
		<path fill="#264675" d="M195.369,518.995c0,0,24.198,5.057,35.204-26.667C230.573,492.328,204.164,484.879,195.369,518.995z"/>
	</g>
	<g>
		<g>
			<g>
				<g>
					<path fill="#264675" d="M154.317,496.129c0.025-0.06,0.051-0.119,0.077-0.179c3.395-7.938-4.168-15.719-11.773-13.516
						c1.185,1.099,2.097,2.246,2.097,3.698c-3.483,45.27-31.34,84.444-47.881,125.36c-2.612,6.095-6.094,12.189-6.964,19.153
						c6.396-2.46,10.567-7.424,14.401-12.689c-1.458,1.722-2.914,3.441-4.368,5.16C118.043,580.788,136.18,538.459,154.317,496.129z
						"/>
				</g>
				<g>
					<path fill="#264675" d="M274.7,480.949c2.502,3.543,3.281,8.113,1.473,11.277c-17.411,31.34-47.881,50.493-74.869,73.998
						c-25.247,22.635-53.975,40.047-74.869,66.162c6.063-0.672,10.565-4.987,15.919-7.714c-2.565,1.204-5.081,2.519-7.518,3.974
						c48.845-44.332,113.242-74.624,149.118-128.842C289.197,491.883,283.695,481.52,274.7,480.949z"/>
				</g>
				<g>
					<path fill="#264675" d="M189.117,631.518c-25.247,16.54-51.363,23.504-75.739,37.434c2.306,0,4.611-0.154,6.918-0.396
						c26.718-7.918,52.108-20.286,74.83-36.417c4.634-3.289,4.515-9.521,1.095-12.978
						C195.868,623.952,193.68,628.474,189.117,631.518z"/>
				</g>
				<g>
					<path fill="#00284F" d="M274.7,480.949c-0.642-0.041-1.3-0.035-1.975,0.027c-6.615,0.623-13.534,3.019-19.477,5.83
						c-60.291,28.518-105.766,80.156-148.976,131.15c-3.833,5.266-8.005,10.229-14.401,12.689
						c0.871-6.965,4.353-13.059,6.964-19.153c16.541-40.916,44.399-80.091,47.881-125.36c0-1.452-0.912-2.6-2.097-3.698
						c-0.748,0.216-1.498,0.526-2.238,0.946c-12.782,7.264-23.189,19.605-32.007,31.787C73.536,563.297,6.859,660.182-7.407,717.86
						l-21.931,30.614c62.733-17.817,124.671-38.436,185.568-61.77c0.123-0.047,0.246-0.095,0.369-0.142
						c8.699-3.396,6.843-16.202-2.455-17.059c-11.651-1.073-23.384-1.268-35.064-0.582c0.407-0.117,0.809-0.246,1.215-0.366
						c-2.306,0.241-4.612,0.396-6.918,0.396c24.376-13.93,50.492-20.893,75.739-37.434c4.563-3.044,6.751-7.565,7.104-12.357
						c-1.251-1.266-2.942-2.163-5.009-2.402c-15.856-1.833-32.218,0.576-46.834,6.983c0.948-0.381,1.926-0.702,2.952-0.93
						c-1.026,0.227-2.004,0.549-2.952,0.93c-0.679,0.298-1.35,0.615-2.023,0.932c-5.354,2.727-9.856,7.042-15.919,7.714
						c20.894-26.115,49.622-43.527,74.869-66.162c26.987-23.505,57.458-42.658,74.869-73.998
						C277.981,489.063,277.202,484.492,274.7,480.949z"/>
				</g>
			</g>
			<g>
				<g>
					<path fill="#00284F" d="M228.812,807.51l1.075,7.778c11.808-23.931,19.446-51.616,12.134-77.28
						C227.143,757.421,222.094,783.992,228.812,807.51z"/>
				</g>
				<g>
					<path fill="#00284F" d="M273.464,765.922c11.402-17.529,20.544-37.036,22.775-57.827
						c-15.874,8.724-28.509,22.656-37.478,38.392c-8.97,15.735-14.447,33.25-18.128,50.984l-4.89,18.551
						C248.356,799.343,262.062,783.45,273.464,765.922z"/>
				</g>
				<g>
					<path fill="#00284F" d="M245.088,807.396l-13.738,18.049c31.1-18.298,63.511-37.874,81.868-68.94
						C285.743,765.359,261.375,783.562,245.088,807.396z"/>
				</g>
			</g>
			<g>
				<g>
					<path fill="#00284F" d="M887.257,810.676c0.703,0.391,1.408,0.779,2.121,1.152l8.831,6.346
						c-12.711-34.599-33.134-68.6-65.717-85.801C844.699,761.704,862.216,790.828,887.257,810.676z"/>
				</g>
				<g>
					<path fill="#264675" d="M832.493,732.373c-0.086-0.047-0.171-0.095-0.256-0.141c5.155,32.665,26.102,62.435,55.021,78.443
						C862.216,790.828,844.699,761.704,832.493,732.373z"/>
				</g>
				<g>
					<path fill="#00284F" d="M902.85,802.285c-3.789-25.073-6.717-50.306-12.588-74.964c-6.605-27.745-17.233-55.114-35.447-77.032
						C852.144,704.868,871.939,758.016,902.85,802.285z"/>
				</g>
				<g>
					<path fill="#264675" d="M854.815,650.289c-0.282-0.34-0.562-0.682-0.847-1.018c-6.397,24.255-4.475,50.233,2.756,74.254
						c7.229,24.021,19.579,46.237,33.862,66.859l13.949,22.611c-0.587-3.565-1.146-7.137-1.686-10.711
						C871.939,758.016,852.144,704.868,854.815,650.289z"/>
				</g>
				<g>
					<path fill="#264675" d="M919.015,679.377c-0.087-0.314-0.17-0.626-0.258-0.939c-17.34,36.025-22.331,77.854-13.958,116.947
						l4.999,31.017c0.298-1.279,0.596-2.561,0.893-3.845C901.278,775.105,905.517,725.64,919.015,679.377z"/>
				</g>
				<g>
					<path fill="#00284F" d="M919.015,679.377c-13.498,46.263-17.737,95.727-8.324,143.18
						C921.624,775.351,931.911,725.914,919.015,679.377z"/>
				</g>
			</g>
			<g>
				<g>
					<path fill="#00284F" d="M844.113,809.875l6.339-0.733c-19.227-10.024-41.579-16.729-62.558-11.251
						C803.395,810.326,824.889,814.908,844.113,809.875z"/>
				</g>
				<g>
					<path fill="#00284F" d="M811.136,772.853c-14.032-9.579-29.713-17.357-46.563-19.543c6.8,13.052,17.889,23.566,30.51,31.137
						c12.62,7.57,26.75,12.335,41.088,15.646l14.98,4.307C837.831,793.852,825.169,782.431,811.136,772.853z"/>
				</g>
				<g>
					<path fill="#00284F" d="M844.314,796.651l14.414,11.486c-14.303-25.594-29.619-52.274-54.523-67.747
						C810.902,762.869,825.247,782.991,844.314,796.651z"/>
				</g>
			</g>
			<g>
				<g>
					<g>
						<path fill="#264675" d="M1092.049,688.372c-11.727-8.667-25.492-22.942-15.805-37.727
							c7.138-11.216,22.432-9.687,34.668-10.706c1.529-0.51,3.06-1.53,4.588-3.06c-12.236-10.196-24.981-18.863-38.236-28.55
							c-16.824-11.726-26.002-28.04-30.08-47.413c-3.543-17.715,4.071-33.121,11.813-48.225
							c-8.426,5.181-14.094,14.322-17.205,23.821c-5.28,16.121-4.177,34.239,3.021,49.601c10.693,22.82,32.877,37.559,54.422,50.842
							c-12.691-6.549-30.629,2.057-35.308,15.992c-4.993,14.868,2.717,31.865,15.208,41.353
							c12.491,9.484,28.712,12.652,44.388,13.163c2.975,0.096,7.205,0.186,12.223,0.243c-6.273-2.168-12.357-4.886-18.206-8.118
							C1108.873,694.999,1099.696,694.489,1092.049,688.372z"/>
					</g>
					<g>
						<path fill="#00284F" d="M1209.063,703.83c-1.351-34.275-2.702-68.551-4.052-102.826c-0.432-10.956-2.945-24.659-13.566-27.386
							c-11.911-3.059-20.763,10.646-25.396,22.037c-10.821-28.536-29.753-53.943-53.999-72.477
							c-14.361-10.976-33.682-19.749-50.061-12.104c-1.034,0.482-2.031,1.024-2.992,1.616c-7.742,15.104-15.356,30.51-11.813,48.225
							c4.078,19.373,13.256,35.688,30.08,47.413c13.255,9.687,26,18.354,38.236,28.55c-1.528,1.529-3.059,2.55-4.588,3.06
							c-12.236,1.02-27.53-0.51-34.668,10.706c-9.688,14.785,4.078,29.06,15.805,37.727c7.646,6.117,16.824,6.627,25.491,11.216
							c5.849,3.232,11.933,5.95,18.206,8.118C1158.148,707.957,1196.303,707.519,1209.063,703.83z"/>
					</g>
				</g>
			</g>
			<g>
				<g>
					<g>
						<path fill="#264675" d="M1015.118,773.718c-8.64-6.386-18.78-16.904-11.644-27.797c5.259-8.263,16.526-7.137,25.542-7.888
							c1.126-0.375,2.254-1.127,3.38-2.254c-9.014-7.512-18.405-13.898-28.171-21.035c-12.395-8.639-19.157-20.659-22.162-34.933
							c-2.609-13.052,2.999-24.401,8.703-35.53c-6.207,3.816-10.383,10.552-12.675,17.551c-3.891,11.878-3.078,25.227,2.227,36.544
							c7.877,16.815,24.222,27.673,40.095,37.46c-9.351-4.825-22.565,1.515-26.014,11.781c-3.677,10.955,2.003,23.479,11.206,30.468
							c9.202,6.988,21.152,9.322,32.703,9.698c2.19,0.07,5.309,0.138,9.004,0.18c-4.62-1.598-9.104-3.601-13.413-5.981
							C1027.514,778.601,1020.752,778.225,1015.118,773.718z"/>
					</g>
					<g>
						<path fill="#00284F" d="M1101.33,785.106c-0.995-25.252-1.99-50.506-2.985-75.758c-0.318-8.073-2.17-18.168-9.995-20.177
							c-8.776-2.253-15.297,7.843-18.711,16.235c-7.973-21.023-21.921-39.743-39.784-53.398
							c-10.58-8.086-24.816-14.551-36.884-8.917c-0.763,0.354-1.496,0.755-2.205,1.19c-5.704,11.129-11.313,22.478-8.703,35.53
							c3.005,14.273,9.767,26.294,22.162,34.933c9.766,7.137,19.157,13.523,28.171,21.035c-1.126,1.127-2.254,1.879-3.38,2.254
							c-9.016,0.751-20.283-0.375-25.542,7.888c-7.137,10.893,3.004,21.411,11.644,27.797c5.635,4.507,12.396,4.883,18.781,8.264
							c4.31,2.381,8.793,4.384,13.413,5.981C1063.817,788.148,1091.929,787.824,1101.33,785.106z"/>
					</g>
				</g>
			</g>
		</g>
		<g>
			<g>
				<path fill="#00284F" d="M1395.959,717.767c-11.245-50.369-53.446-91.343-103.071-105.51s-104.866-2.874-147.787,25.783
					c-35.51,23.709-64.717,64.665-56.873,106.637c-65.71-29.462-151.937,0.758-184.882,64.791
					c-7.604-17.617-30.456-24.28-49.11-19.784c-18.653,4.496-34.025,17.287-48.663,29.694
					c-7.993-16.065-26.385-26.301-44.249-24.629c-17.864,1.671-34.037,15.143-38.912,32.411
					c-20.67-68.214-102.642-102.011-173.283-92.513c-70.642,9.496-132.228,51.12-190.906,91.583
					c-27.746-34.267-83.369-41.373-118.842-15.186c-5.325-50.497-66.849-86.029-113.249-65.407
					C110.239,673.55,57.825,610.511-10.151,581.73c-34.84-14.751-73.296-20.304-110.969-16.993
					c-70.907,6.229-127.699,62.266-132.743,133.268c-0.497,7.007-0.501,13.975,0.14,20.747
					c5.638,59.551,42.055,113.115,88.961,150.235c46.907,37.12,103.655,59.617,160.823,77.222
					c277.2,85.364,574.416,65.556,863.655,43.942c101.714-7.6,203.828-15.379,303.416-37.414
					c60.038-13.285,120.673-32.641,167.84-72.09C1378.141,841.196,1409.357,777.778,1395.959,717.767z"/>
			</g>
			<g>
				<path fill="#264675" d="M113.328,766.066c98.698-36.776,118.789,62.199,118.279,67.807
					c17.334-20.393,45.374-26.51,70.865-23.961c24.981,3.059,50.472,17.844,60.159,41.805
					c203.767-199.312,361.974-7.137,362.485-2.549c0-0.51,0-1.019,0-1.529c0.51,0,1.529,0,1.529,0
					c21.129-73.395,88.709-11.726,88.709-12.236c38.881-45.718,96.867-3.059,97.887-3.059
					c70.822-123.131,219.224-43.335,218.714-44.864c-6.498-133.889,151.952-176.505,154.48-176.91
					c-47.917-11.469-100.265,0.05-141.335,27.472c-35.51,23.709-64.717,64.665-56.873,106.637
					c-65.71-29.462-151.937,0.758-184.882,64.791c-7.604-17.617-30.456-24.28-49.11-19.784
					c-18.653,4.496-34.025,17.287-48.663,29.694c-7.993-16.065-26.385-26.301-44.249-24.629
					c-17.864,1.671-34.037,15.143-38.912,32.411c-20.67-68.214-102.642-102.011-173.283-92.513
					c-70.642,9.496-132.228,51.12-190.906,91.583c-27.746-34.267-83.369-41.373-118.842-15.186
					c-5.325-50.497-66.849-86.029-113.249-65.407C110.239,673.55,57.825,610.511-10.151,581.73
					c-34.84-14.751-73.296-20.304-110.969-16.993c-19.307,1.695-37.562,7.091-54.015,15.469
					C-164.463,580.602,52.931,586.961,113.328,766.066z"/>
			</g>
		</g>
	</g>
</g>
</svg>
