<?xml version="1.0" encoding="utf-8"?>
<!-- Generator: Adobe Illustrator 17.0.0, SVG Export Plug-In . SVG Version: 6.00 Build 0)  -->
<!DOCTYPE svg PUBLIC "-//W3C//DTD SVG 1.1//EN" "http://www.w3.org/Graphics/SVG/1.1/DTD/svg11.dtd">
<svg version="1.1" xmlns="http://www.w3.org/2000/svg" xmlns:xlink="http://www.w3.org/1999/xlink" x="0px" y="0px"
	 width="1115.473px" height="857.181px" viewBox="0 0 1115.473 857.181" enable-background="new 0 0 1115.473 857.181"
	 xml:space="preserve">
<g id="left" display="none">
	<g id="Layer_1_1_">
		<g display="inline">
			<g>
				<g>
					<defs>
						<rect id="SVGID_1_" width="1115.473" height="857.181"/>
					</defs>
					<clipPath id="SVGID_2_">
						<use xlink:href="#SVGID_1_"  overflow="visible"/>
					</clipPath>
					
						<linearGradient id="SVGID_3_" gradientUnits="userSpaceOnUse" x1="57.7253" y1="829.0953" x2="1741.4847" y2="-377.7188" gradientTransform="matrix(1 0 0 -1 -48.045 825.931)">
						<stop  offset="0.0026" style="stop-color:#ECFFBF"/>
						<stop  offset="0.1207" style="stop-color:#99D2BE"/>
						<stop  offset="0.23" style="stop-color:#53ACBD"/>
						<stop  offset="0.2806" style="stop-color:#379DBD"/>
						<stop  offset="0.4259" style="stop-color:#307FA2"/>
						<stop  offset="0.6873" style="stop-color:#254F76"/>
						<stop  offset="0.8871" style="stop-color:#1F315A"/>
						<stop  offset="1" style="stop-color:#1C2650"/>
					</linearGradient>
					<rect clip-path="url(#SVGID_2_)" fill="url(#SVGID_3_)" width="1224.138" height="857.181"/>
				</g>
				<g>
					<defs>
						<rect id="SVGID_4_" width="1115.473" height="857.181"/>
					</defs>
					<clipPath id="SVGID_5_">
						<use xlink:href="#SVGID_4_"  overflow="visible"/>
					</clipPath>
					<g opacity="0.6" clip-path="url(#SVGID_5_)">
						<g>
							
								<linearGradient id="SVGID_6_" gradientUnits="userSpaceOnUse" x1="7.048" y1="743.7015" x2="1313.1791" y2="743.7015" gradientTransform="matrix(1 0 0 -1 -48.045 825.931)">
								<stop  offset="7.812500e-004" style="stop-color:#FFFFFF"/>
								<stop  offset="1" style="stop-color:#FFFFFF"/>
							</linearGradient>
							<polygon opacity="0.3" fill="url(#SVGID_6_)" enable-background="new    " points="8.538,57.779 1265.134,16.983 
								-40.997,147.476 							"/>
							
								<linearGradient id="SVGID_7_" gradientUnits="userSpaceOnUse" x1="-2686.6787" y1="536.8886" x2="-1380.5476" y2="536.8886" gradientTransform="matrix(-1 0 0 1 -1421.5447 -386.6006)">
								<stop  offset="7.812500e-004" style="stop-color:#FFFFFF"/>
								<stop  offset="1" style="stop-color:#FFFFFF"/>
							</linearGradient>
							<polygon opacity="0.3" fill="url(#SVGID_7_)" enable-background="new    " points="1215.599,174.739 -40.997,215.534 
								1265.134,85.042 							"/>
						</g>
						<g>
							
								<linearGradient id="SVGID_8_" gradientUnits="userSpaceOnUse" x1="7.048" y1="599.366" x2="1313.1791" y2="599.366" gradientTransform="matrix(1 0 0 -1 -48.045 825.931)">
								<stop  offset="7.812500e-004" style="stop-color:#FFFFFF"/>
								<stop  offset="1" style="stop-color:#FFFFFF"/>
							</linearGradient>
							<polygon opacity="0.3" fill="url(#SVGID_8_)" enable-background="new    " points="8.538,202.115 1265.134,161.319 
								-40.997,291.811 							"/>
							
								<linearGradient id="SVGID_9_" gradientUnits="userSpaceOnUse" x1="-2686.6787" y1="681.2246" x2="-1380.5476" y2="681.2246" gradientTransform="matrix(-1 0 0 1 -1421.5447 -386.6006)">
								<stop  offset="7.812500e-004" style="stop-color:#FFFFFF"/>
								<stop  offset="1" style="stop-color:#FFFFFF"/>
							</linearGradient>
							<polygon opacity="0.3" fill="url(#SVGID_9_)" enable-background="new    " points="1215.599,319.075 -40.997,359.87 
								1265.134,229.378 							"/>
						</g>
					</g>
				</g>
				<g>
					<defs>
						<rect id="SVGID_10_" width="1115.473" height="857.181"/>
					</defs>
					<clipPath id="SVGID_11_">
						<use xlink:href="#SVGID_10_"  overflow="visible"/>
					</clipPath>
					<g clip-path="url(#SVGID_11_)">
						<g>
							<g>
								<g>
									<path fill="#FFFFFF" d="M725.411,386.835c0.233-0.836,0.129-1.716-0.318-2.463c-0.639-1.067-1.594-1.413-2.765-1.552
										c-0.79-0.094-1.745,0.393-2.285,0.932c-0.79,0.791-1.129,2.007-0.795,3.084c0.495,1.597,2.125,2.599,3.777,2.144
										c1.574-0.433,2.64-2.178,2.145-3.777c-0.006-0.018-0.012-0.038-0.018-0.056c-0.104,0.789-0.207,1.577-0.31,2.366
										c0.008-0.014,0.015-0.027,0.022-0.04c-0.367,0.367-0.734,0.734-1.102,1.102c0.017-0.008,0.033-0.017,0.05-0.025
										c-0.244,0.104-0.488,0.207-0.733,0.31c0.021-0.002,0.043-0.005,0.063-0.008c-0.271,0.037-0.544,0.073-0.815,0.109
										c0.021,0.003,0.042,0.005,0.064,0.008c-0.517-0.14-1.033-0.279-1.55-0.419c0.017,0.008,0.034,0.016,0.051,0.024
										c-0.367-0.367-0.734-0.734-1.102-1.102c0.008,0.014,0.016,0.027,0.024,0.04c-0.103-0.789-0.207-1.577-0.309-2.366
										c-0.006,0.019-0.011,0.038-0.017,0.056c-0.451,1.611,0.538,3.335,2.145,3.777
										C723.253,389.424,724.959,388.444,725.411,386.835L725.411,386.835z"/>
								</g>
							</g>
							<g>
								<g>
									<path fill="#FFFFFF" d="M732.729,432.892c-0.111-0.112-0.224-0.224-0.336-0.335c-1.187-1.18-3.156-1.186-4.342,0
										c-1.18,1.18-1.187,3.163,0,4.342c0.112,0.111,0.224,0.224,0.336,0.335c1.183,1.183,3.159,1.183,4.342,0
										C733.911,436.051,733.912,434.074,732.729,432.892L732.729,432.892z"/>
								</g>
							</g>
							<g>
								<g>
									<path fill="#FFFFFF" d="M630.674,407.691c0.111-0.112,0.224-0.224,0.335-0.335c1.183-1.184,1.184-3.159,0-4.342
										c-1.183-1.183-3.159-1.184-4.342,0c-0.111,0.112-0.224,0.224-0.335,0.335c-1.183,1.184-1.184,3.159,0,4.342
										C627.515,408.874,629.492,408.875,630.674,407.691L630.674,407.691z"/>
								</g>
							</g>
							<g>
								<g>
									<path fill="#FFFFFF" d="M660.216,353.665c-0.111-0.112-0.224-0.224-0.336-0.335c-1.186-1.18-3.157-1.185-4.342,0
										c-1.181,1.181-1.186,3.162,0,4.342c0.112,0.112,0.224,0.224,0.336,0.335c1.183,1.184,3.159,1.183,4.342,0
										S661.398,354.849,660.216,353.665L660.216,353.665z"/>
								</g>
							</g>
							<g>
								<g>
									<path fill="#FFFFFF" d="M597.282,430.985c-0.112,0-0.224,0-0.336,0c-1.674,0-3.07,1.396-3.07,3.07s1.396,3.07,3.07,3.07
										c0.112,0,0.224,0,0.336,0c1.674,0,3.07-1.397,3.07-3.07S598.956,430.985,597.282,430.985L597.282,430.985z"/>
								</g>
							</g>
							<g>
								<g>
									<path fill="#FFFFFF" d="M650.323,465.898c-0.111,0-0.224,0-0.335,0c-1.674,0-3.07,1.396-3.07,3.07s1.396,3.07,3.07,3.07
										c0.111,0,0.224,0,0.335,0c1.674,0,3.07-1.396,3.07-3.07C653.393,467.295,651.997,465.898,650.323,465.898L650.323,465.898z
										"/>
								</g>
							</g>
							<g>
								<g>
									<path fill="#FFFFFF" d="M813.818,490.039c-0.219,0-0.437,0-0.656,0c-1.674,0-3.07,1.397-3.07,3.07s1.396,3.07,3.07,3.07
										c0.219,0,0.438,0,0.656,0c1.674,0,3.07-1.396,3.07-3.07S815.492,490.039,813.818,490.039L813.818,490.039z"/>
								</g>
							</g>
							<g>
								<g>
									<path fill="#FFFFFF" d="M881.55,452.778c3.96,0,3.96-6.141,0-6.141C877.59,446.638,877.59,452.778,881.55,452.778
										L881.55,452.778z"/>
								</g>
							</g>
							<g>
								<g>
									<path fill="#FFFFFF" d="M953.234,451.186c-0.217-0.023-0.433-0.048-0.649-0.071c-0.766-0.083-1.649,0.377-2.171,0.9
										c-0.573,0.573-0.899,1.359-0.899,2.171c0,0.811,0.326,1.598,0.899,2.171c0.623,0.624,1.325,0.807,2.171,0.899
										c0.217,0.023,0.433,0.048,0.649,0.071c0.766,0.083,1.648-0.377,2.171-0.9c0.573-0.573,0.899-1.36,0.899-2.171
										s-0.326-1.598-0.899-2.171C954.782,451.462,954.08,451.279,953.234,451.186L953.234,451.186z"/>
								</g>
							</g>
							<g>
								<g>
									<path fill="#FFFFFF" d="M807.9,380.22c-0.136,0-0.271,0-0.407,0c-3.96,0-3.96,6.141,0,6.141c0.136,0,0.271,0,0.407,0
										C811.86,386.361,811.86,380.22,807.9,380.22c-0.136,0-0.271,0-0.407,0c-3.96,0-3.96,6.141,0,6.141c0.136,0,0.271,0,0.407,0
										C811.86,386.361,811.86,380.22,807.9,380.22L807.9,380.22z"/>
								</g>
							</g>
							<g>
								<g>
									<path fill="#FFFFFF" d="M858.535,369.698c-0.136,0-0.271,0-0.407,0c-3.96,0-3.96,6.141,0,6.141c0.136,0,0.271,0,0.407,0
										C862.495,375.839,862.495,369.698,858.535,369.698c-0.136,0-0.271,0-0.407,0c-3.96,0-3.96,6.141,0,6.141
										c0.136,0,0.271,0,0.407,0C862.495,375.839,862.495,369.698,858.535,369.698L858.535,369.698z"/>
								</g>
							</g>
							<g>
								<g>
									<path fill="#FFFFFF" d="M767.787,318.629c3.96,0,3.96-6.141,0-6.141C763.827,312.488,763.827,318.629,767.787,318.629
										L767.787,318.629z"/>
								</g>
							</g>
							<g>
								<g>
									<path fill="#FFFFFF" d="M782.911,283.777c3.96,0,3.96-6.141,0-6.141C778.951,277.636,778.951,283.777,782.911,283.777
										L782.911,283.777z"/>
								</g>
							</g>
							<g>
								<g>
									<path fill="#FFFFFF" d="M850.445,293.003c-0.219,0.219-0.438,0.438-0.656,0.657c-1.183,1.183-1.184,3.159,0,4.342
										c1.183,1.183,3.159,1.183,4.342,0c0.219-0.219,0.437-0.438,0.656-0.657c1.183-1.183,1.184-3.159,0-4.342
										C853.604,291.82,851.628,291.82,850.445,293.003L850.445,293.003z"/>
								</g>
							</g>
							<g>
								<g>
									<path fill="#FFFFFF" d="M881.991,337.259c0-0.136,0-0.272,0-0.408c0-3.96-6.141-3.96-6.141,0c0,0.136,0,0.272,0,0.408
										C875.851,341.219,881.991,341.219,881.991,337.259c0-0.136,0-0.272,0-0.408c0-3.96-6.141-3.96-6.141,0
										c0,0.136,0,0.272,0,0.408C875.851,341.219,881.991,341.219,881.991,337.259L881.991,337.259z"/>
								</g>
							</g>
							<g>
								<g>
									<path fill="#FFFFFF" d="M919.691,280.924c-0.22,0-0.438,0-0.658,0c-1.674,0-3.07,1.396-3.07,3.07s1.396,3.07,3.07,3.07
										c0.22,0,0.438,0,0.658,0c1.674,0,3.07-1.396,3.07-3.07C922.762,282.32,921.365,280.924,919.691,280.924L919.691,280.924z"
										/>
								</g>
							</g>
							<g>
								<g>
									<path fill="#FFFFFF" d="M950.599,283.119c3.96,0,3.96-6.141,0-6.141S946.639,283.119,950.599,283.119L950.599,283.119z"/>
								</g>
							</g>
							<g>
								<g>
									<path fill="#FFFFFF" d="M950.599,326.298c-0.22,0-0.438,0-0.658,0c-1.674,0-3.07,1.396-3.07,3.07s1.397,3.07,3.07,3.07
										c0.22,0,0.439,0,0.658,0c1.674,0,3.07-1.396,3.07-3.07C953.669,327.695,952.272,326.298,950.599,326.298L950.599,326.298z"
										/>
								</g>
							</g>
							<g>
								<g>
									<path fill="#FFFFFF" d="M1042.003,284.212c-0.136,0-0.271,0-0.406,0c-3.96,0-3.96,6.141,0,6.141c0.136,0,0.271,0,0.406,0
										C1045.963,290.353,1045.963,284.212,1042.003,284.212c-0.136,0-0.271,0-0.406,0c-3.96,0-3.96,6.141,0,6.141
										c0.136,0,0.271,0,0.406,0C1045.963,290.353,1045.963,284.212,1042.003,284.212L1042.003,284.212z"/>
								</g>
							</g>
							<g>
								<g>
									<path fill="#FFFFFF" d="M1075.98,303.064c0-0.219,0-0.438,0-0.657c0-1.674-1.396-3.07-3.07-3.07s-3.07,1.397-3.07,3.07
										c0,0.219,0,0.438,0,0.657c0,1.674,1.397,3.07,3.07,3.07S1075.98,304.738,1075.98,303.064L1075.98,303.064z"/>
								</g>
							</g>
							<g>
								<g>
									<path fill="#FFFFFF" d="M1103.797,420.218c-0.024,0-0.049,0-0.073,0c0.517,0.14,1.033,0.279,1.55,0.419
										c-0.019-0.008-0.039-0.017-0.059-0.025c0.207,0.16,0.414,0.32,0.621,0.48c-0.016-0.016-0.03-0.031-0.045-0.046
										c0.16,0.207,0.32,0.415,0.479,0.622c-0.01-0.02-0.021-0.041-0.03-0.061c0.103,0.245,0.206,0.489,0.31,0.733
										c-0.006-0.023-0.012-0.047-0.018-0.07c0.036,0.272,0.073,0.544,0.109,0.816c-0.007-0.05-0.005-0.1,0.006-0.149
										c-0.037,0.272-0.073,0.544-0.11,0.816c0.008-0.022,0.016-0.046,0.022-0.068c-0.103,0.244-0.206,0.489-0.31,0.733
										c0.012-0.02,0.023-0.039,0.036-0.058c-0.16,0.207-0.32,0.414-0.48,0.621c0.016-0.014,0.032-0.028,0.048-0.042
										c-0.451,0.263-0.903,0.526-1.354,0.789c0.021-0.007,0.04-0.014,0.061-0.021c-0.272,0.037-0.544,0.073-0.816,0.109
										c0.024,0.002,0.049,0.003,0.073,0.005c1.672,0.116,3.07-1.485,3.07-3.07c0-1.762-1.401-2.954-3.07-3.07
										c-0.9-0.063-1.701,0.387-2.353,0.958c-0.7,0.614-0.858,1.509-0.967,2.372c-0.104,0.822,0.392,1.811,0.952,2.377
										c0.623,0.632,1.458,0.968,2.348,0.97c1.674,0.004,3.07-1.399,3.07-3.07
										C1106.867,421.611,1105.471,420.222,1103.797,420.218L1103.797,420.218z"/>
								</g>
							</g>
							<g>
								<g>
									<path fill="#FFFFFF" d="M1039.716,473.218c-0.011-0.039-0.022-0.078-0.033-0.117c0.037,0.272,0.073,0.544,0.11,0.815
										c-0.017-0.127-0.017-0.235,0-0.362c-0.036,0.272-0.073,0.544-0.109,0.816c0.016-0.081,0.04-0.158,0.074-0.233
										c-0.104,0.244-0.207,0.489-0.31,0.733c0.033-0.075,0.075-0.145,0.124-0.211c-0.16,0.207-0.319,0.414-0.479,0.621
										c0.049-0.066,0.105-0.124,0.169-0.176c-0.207,0.16-0.414,0.32-0.622,0.48c0.064-0.052,0.133-0.095,0.207-0.128
										c-0.245,0.103-0.489,0.206-0.733,0.31c0.038-0.015,0.076-0.028,0.115-0.042c1.57-0.572,2.615-2.064,2.144-3.777
										c-0.417-1.515-2.203-2.718-3.777-2.145c-1.053,0.384-1.768,0.925-2.394,1.859c-0.602,0.898-0.688,2.17-0.408,3.188
										c0.445,1.612,2.163,2.588,3.777,2.145C1039.183,476.552,1040.16,474.83,1039.716,473.218L1039.716,473.218z"/>
								</g>
							</g>
							<g>
								<g>
									<path fill="#FFFFFF" d="M1086.678,511.319c-0.22-0.438-0.439-0.876-0.66-1.314c-0.753-1.493-2.825-1.907-4.201-1.102
										c-1.509,0.885-1.854,2.707-1.102,4.201c0.221,0.438,0.441,0.876,0.66,1.315c0.749,1.495,2.829,1.905,4.201,1.102
										C1087.088,514.634,1087.426,512.816,1086.678,511.319L1086.678,511.319z"/>
								</g>
							</g>
							<g>
								<g>
									<path fill="#FFFFFF" d="M1147.001,485.876c0-0.22,0-0.439,0-0.658c0-1.674-1.396-3.07-3.07-3.07s-3.07,1.397-3.07,3.07
										c0,0.22,0,0.439,0,0.658c0,1.674,1.397,3.07,3.07,3.07S1147.001,487.55,1147.001,485.876L1147.001,485.876z"/>
								</g>
							</g>
							<g>
								<g>
									<path fill="#FFFFFF" d="M1147.659,547.03c0-0.219,0-0.438,0-0.656c0-1.674-1.396-3.07-3.07-3.07s-3.07,1.396-3.07,3.07
										c0,0.219,0,0.438,0,0.656c0,1.674,1.396,3.07,3.07,3.07C1146.263,550.101,1147.659,548.704,1147.659,547.03
										L1147.659,547.03z"/>
								</g>
							</g>
							<g>
								<g>
									<path fill="#FFFFFF" d="M1004.303,567.417c0-0.22,0-0.438,0-0.658c0-1.674-1.396-3.07-3.07-3.07s-3.07,1.397-3.07,3.07
										c0,0.22,0,0.439,0,0.658c0,1.674,1.396,3.07,3.07,3.07C1002.906,570.487,1004.303,569.091,1004.303,567.417
										L1004.303,567.417z"/>
								</g>
							</g>
							<g>
								<g>
									<path fill="#FFFFFF" d="M805.71,575.967c0-0.22,0-0.438,0-0.658c0-1.674-1.396-3.07-3.07-3.07s-3.07,1.397-3.07,3.07
										c0,0.22,0,0.438,0,0.658c0,1.674,1.396,3.07,3.07,3.07C804.313,579.037,805.71,577.641,805.71,575.967L805.71,575.967z"/>
								</g>
							</g>
							<g>
								<g>
									<path fill="#FFFFFF" d="M676.381,538.265c3.96,0,3.96-6.141,0-6.141C672.421,532.124,672.421,538.265,676.381,538.265
										L676.381,538.265z"/>
								</g>
							</g>
							<g>
								<g>
									<path fill="#FFFFFF" d="M597.253,518.099c0-0.22,0-0.438,0-0.658c0-1.674-1.397-3.07-3.07-3.07
										c-1.674,0-3.07,1.396-3.07,3.07c0,0.22,0,0.439,0,0.658c0,1.674,1.396,3.07,3.07,3.07
										C595.856,521.169,597.253,519.773,597.253,518.099L597.253,518.099z"/>
								</g>
							</g>
							<g>
								<g>
									<path fill="#FFFFFF" d="M460.691,542.211c3.96,0,3.96-6.141,0-6.141C456.731,536.07,456.731,542.211,460.691,542.211
										L460.691,542.211z"/>
								</g>
							</g>
							<g>
								<g>
									<path fill="#FFFFFF" d="M416.434,467.922c-0.219,0.22-0.438,0.439-0.658,0.658c-1.184,1.182-1.182,3.16,0,4.342
										c1.184,1.184,3.158,1.182,4.342,0c0.22-0.219,0.438-0.439,0.658-0.658c1.183-1.183,1.183-3.159,0-4.342
										C419.593,466.739,417.617,466.739,416.434,467.922L416.434,467.922z"/>
								</g>
							</g>
							<g>
								<g>
									<path fill="#FFFFFF" d="M425.839,428.225c-0.219,0-0.439,0-0.658,0c-1.674,0-3.07,1.396-3.07,3.07s1.397,3.07,3.07,3.07
										c0.219,0,0.439,0,0.658,0c1.674,0,3.07-1.396,3.07-3.07S427.513,428.225,425.839,428.225L425.839,428.225z"/>
								</g>
							</g>
							<g>
								<g>
									<path fill="#FFFFFF" d="M517.244,404.774c3.96,0,3.96-6.141,0-6.141C513.284,398.634,513.284,404.774,517.244,404.774
										L517.244,404.774z"/>
								</g>
							</g>
							<g>
								<g>
									<path fill="#FFFFFF" d="M417.749,351.528c-0.219,0.219-0.438,0.438-0.658,0.657c-1.184,1.182-1.182,3.16,0,4.342
										c1.184,1.184,3.158,1.182,4.342,0c0.219-0.219,0.439-0.438,0.658-0.657c1.183-1.183,1.183-3.159,0-4.342
										C420.909,350.345,418.932,350.345,417.749,351.528L417.749,351.528z"/>
								</g>
							</g>
							<g>
								<g>
									<path fill="#FFFFFF" d="M415.975,315.119c-0.136,0-0.271,0-0.407,0c-3.96,0-3.96,6.141,0,6.141c0.136,0,0.272,0,0.407,0
										C419.935,321.26,419.935,315.119,415.975,315.119c-0.136,0-0.271,0-0.407,0c-3.96,0-3.96,6.141,0,6.141
										c0.136,0,0.272,0,0.407,0C419.935,321.26,419.935,315.119,415.975,315.119L415.975,315.119z"/>
								</g>
							</g>
							<g>
								<g>
									<path fill="#FFFFFF" d="M307.472,326.298c-0.219,0-0.439,0-0.658,0c-1.674,0-3.07,1.396-3.07,3.07s1.397,3.07,3.07,3.07
										c0.219,0,0.438,0,0.658,0c1.674,0,3.07-1.396,3.07-3.07C310.542,327.695,309.146,326.298,307.472,326.298L307.472,326.298z
										"/>
								</g>
							</g>
							<g>
								<g>
									<path fill="#FFFFFF" d="M321.499,297.146c0,0.136,0,0.272,0,0.408c0,3.959,6.141,3.959,6.141,0c0-0.136,0-0.272,0-0.408
										C327.64,293.186,321.499,293.186,321.499,297.146c0,0.136,0,0.272,0,0.408c0,3.959,6.141,3.959,6.141,0
										c0-0.136,0-0.272,0-0.408C327.64,293.186,321.499,293.186,321.499,297.146L321.499,297.146z"/>
								</g>
							</g>
							<g>
								<g>
									<path fill="#FFFFFF" d="M308.515,437.877c-0.024-0.217-0.048-0.435-0.071-0.651c-0.093-0.846-0.276-1.547-0.899-2.171
										c-0.573-0.573-1.36-0.899-2.171-0.899c-0.811,0-1.598,0.326-2.171,0.899c-0.522,0.522-0.983,1.406-0.899,2.171
										c0.024,0.217,0.047,0.435,0.071,0.651c0.093,0.847,0.275,1.547,0.899,2.171c0.573,0.573,1.36,0.899,2.171,0.899
										c0.811,0,1.598-0.326,2.171-0.899C308.138,439.526,308.599,438.642,308.515,437.877L308.515,437.877z"/>
								</g>
							</g>
							<g>
								<g>
									<path fill="#FFFFFF" d="M223.958,296.271c0.438,0,0.876,0,1.314,0c1.674,0,3.07-1.397,3.07-3.07s-1.396-3.07-3.07-3.07
										c-0.438,0-0.877,0-1.314,0c-1.674,0-3.07,1.397-3.07,3.07S222.284,296.271,223.958,296.271L223.958,296.271z"/>
								</g>
							</g>
							<g>
								<g>
									<path fill="#FFFFFF" d="M121.373,317.972c0.219,0,0.439,0,0.658,0c1.674,0,3.07-1.397,3.07-3.07
										c0-1.674-1.396-3.07-3.07-3.07c-0.219,0-0.439,0-0.658,0c-1.674,0-3.07,1.397-3.07,3.07
										C118.302,316.576,119.699,317.972,121.373,317.972L121.373,317.972z"/>
								</g>
							</g>
							<g>
								<g>
									<path fill="#FFFFFF" d="M139.782,388.733c-0.028,0-0.055,0-0.083-0.001c0.272,0.037,0.544,0.073,0.816,0.11
										c-0.05-0.005-0.098-0.019-0.144-0.042c0.245,0.103,0.489,0.206,0.733,0.309c-0.02-0.013-0.04-0.026-0.061-0.039
										c0.207,0.16,0.415,0.32,0.622,0.48c-0.039-0.031-0.071-0.066-0.099-0.107c0.16,0.207,0.32,0.415,0.48,0.622
										c-0.028-0.043-0.051-0.088-0.068-0.137c0.103,0.245,0.206,0.489,0.31,0.733c-0.018-0.051-0.031-0.103-0.038-0.156
										c0.036,0.272,0.073,0.544,0.109,0.816c-0.008-0.084-0.008-0.162,0-0.246c-0.037,0.272-0.073,0.544-0.109,0.816
										c0.015-0.081,0.035-0.152,0.067-0.228c-0.103,0.245-0.207,0.489-0.31,0.733c0.013-0.022,0.025-0.044,0.038-0.066
										c-0.16,0.207-0.32,0.414-0.48,0.621c0.027-0.041,0.06-0.077,0.098-0.107c-0.208,0.16-0.415,0.32-0.622,0.48
										c0.02-0.013,0.04-0.026,0.061-0.04c-0.245,0.103-0.489,0.207-0.733,0.31c0.045-0.023,0.093-0.038,0.143-0.043
										c-0.272,0.037-0.544,0.073-0.816,0.11c0.028-0.001,0.055-0.001,0.083-0.001c1.673-0.018,3.07-1.383,3.07-3.07
										c0-1.66-1.396-3.088-3.07-3.07c-0.972,0.011-1.802,0.368-2.511,1.032c-0.745,0.699-0.97,1.639-1.057,2.604
										c-0.181,2.004,1.663,3.707,3.57,3.716c1.674,0.008,3.07-1.403,3.07-3.07C142.852,390.123,141.456,388.742,139.782,388.733
										L139.782,388.733z"/>
								</g>
							</g>
							<g>
								<g>
									<path fill="#FFFFFF" d="M53.423,455.626c0-0.219,0-0.438,0-0.656c0-1.674-1.396-3.07-3.07-3.07s-3.07,1.397-3.07,3.07
										c0,0.219,0,0.438,0,0.656c0,1.674,1.396,3.07,3.07,3.07C52.026,458.696,53.423,457.3,53.423,455.626L53.423,455.626z"/>
								</g>
							</g>
							<g>
								<g>
									<path fill="#FFFFFF" d="M96.582,508.036c-0.219-0.219-0.438-0.438-0.657-0.658c-1.18-1.186-3.162-1.181-4.342,0
										c-1.185,1.186-1.18,3.156,0,4.342c0.219,0.22,0.438,0.439,0.657,0.658c1.184,1.182,3.158,1.184,4.342,0
										C97.765,511.196,97.767,509.218,96.582,508.036L96.582,508.036z"/>
								</g>
							</g>
							<g>
								<g>
									<path fill="#FFFFFF" d="M68.714,577.479c0.222-0.438,0.445-0.874,0.667-1.312c0.758-1.492,0.404-3.318-1.101-4.201
										c-1.379-0.808-3.443-0.389-4.201,1.102c-0.222,0.438-0.445,0.874-0.667,1.311c-0.758,1.492-0.404,3.318,1.101,4.201
										C65.893,579.389,67.956,578.97,68.714,577.479L68.714,577.479z"/>
								</g>
							</g>
							<g>
								<g>
									<path fill="#FFFFFF" d="M150.505,631.006c-0.22-0.219-0.439-0.439-0.658-0.658c-1.18-1.186-3.161-1.181-4.342,0
										c-1.185,1.185-1.18,3.156,0,4.342c0.219,0.22,0.438,0.439,0.658,0.658c1.184,1.182,3.158,1.184,4.342,0
										C151.687,634.166,151.689,632.188,150.505,631.006L150.505,631.006z"/>
								</g>
							</g>
							<g>
								<g>
									<path fill="#FFFFFF" d="M241.495,528.618c0-0.219,0-0.439,0-0.657c0-1.674-1.396-3.07-3.07-3.07s-3.07,1.396-3.07,3.07
										c0,0.219,0,0.439,0,0.657c0,1.674,1.396,3.07,3.07,3.07S241.495,530.292,241.495,528.618L241.495,528.618z"/>
								</g>
							</g>
							<g>
								<g>
									<path fill="#FFFFFF" d="M298.923,539.581c3.96,0,3.96-6.141,0-6.141C294.963,533.44,294.963,539.581,298.923,539.581
										L298.923,539.581z"/>
								</g>
							</g>
							<g>
								<g>
									<path fill="#FFFFFF" d="M529.5,318.259c-0.534,0-1.067,0-1.6,0c-3.96,0-3.96,6.141,0,6.141c0.533,0,1.066,0,1.6,0
										C533.46,324.4,533.46,318.259,529.5,318.259c-0.534,0-1.067,0-1.6,0c-3.96,0-3.96,6.141,0,6.141c0.533,0,1.066,0,1.6,0
										C533.46,324.4,533.46,318.259,529.5,318.259L529.5,318.259z"/>
								</g>
							</g>
							<g>
								<g>
									<path fill="#FFFFFF" d="M633.396,305.818c0-0.861,0-1.723,0-2.585c0-1.674-1.397-3.07-3.07-3.07
										c-1.674,0-3.07,1.396-3.07,3.07c0,0.861,0,1.723,0,2.585c0,1.674,1.396,3.07,3.07,3.07
										C631.999,308.889,633.396,307.492,633.396,305.818L633.396,305.818z"/>
								</g>
							</g>
							<g>
								<g>
									<path fill="#FFFFFF" d="M574.297,354.342c-0.845-0.119-1.69-0.239-2.535-0.358c-0.859-0.121-1.585-0.148-2.366,0.31
										c-0.686,0.402-1.2,1.067-1.411,1.834c-0.218,0.793-0.106,1.657,0.31,2.366c0.359,0.613,1.095,1.306,1.834,1.411
										c0.845,0.119,1.69,0.239,2.535,0.358c0.859,0.121,1.584,0.148,2.366-0.31c0.686-0.402,1.2-1.067,1.411-1.834
										c0.218-0.792,0.106-1.657-0.31-2.366C575.772,355.139,575.037,354.446,574.297,354.342L574.297,354.342z"/>
								</g>
							</g>
						</g>
						<g>
							<g>
								<g>
									<path fill="#FFFFFF" d="M464.227,134.479c0.112,0.112,0.224,0.224,0.336,0.335c1.184,1.182,3.158,1.184,4.342,0
										c1.182-1.182,1.184-3.16,0-4.342c-0.112-0.112-0.224-0.224-0.336-0.335c-1.184-1.182-3.158-1.184-4.342,0
										C463.044,131.319,463.042,133.297,464.227,134.479L464.227,134.479z"/>
								</g>
							</g>
							<g>
								<g>
									<path fill="#FFFFFF" d="M466.555,216.727c0.112-0.112,0.224-0.224,0.335-0.335c1.185-1.181,1.181-3.161,0-4.342
										c-1.185-1.185-3.157-1.181-4.342,0c-0.112,0.111-0.224,0.223-0.335,0.335c-1.18,1.186-1.185,3.157,0,4.342
										C463.393,217.908,465.374,217.914,466.555,216.727L466.555,216.727z"/>
								</g>
							</g>
							<g>
								<g>
									<path fill="#FFFFFF" d="M495.94,177.006c3.96,0,3.96-6.141,0-6.141C491.98,170.866,491.98,177.006,495.94,177.006
										L495.94,177.006z"/>
								</g>
							</g>
							<g>
								<g>
									<path fill="#FFFFFF" d="M526.153,206.213c3.96,0,3.96-6.141,0-6.141C522.193,200.072,522.193,206.213,526.153,206.213
										L526.153,206.213z"/>
								</g>
							</g>
							<g>
								<g>
									<path fill="#FFFFFF" d="M587.588,164.249c3.96,0,3.96-6.141,0-6.141C583.628,158.109,583.628,164.249,587.588,164.249
										L587.588,164.249z"/>
								</g>
							</g>
							<g>
								<g>
									<path fill="#FFFFFF" d="M539.067,137.5c0.112-0.112,0.224-0.224,0.336-0.336c1.182-1.184,1.184-3.158,0-4.342
										c-1.182-1.182-3.16-1.184-4.342,0c-0.112,0.112-0.224,0.224-0.336,0.336c-1.184,1.182-1.183,3.16,0,4.342
										C535.908,138.684,537.884,138.683,539.067,137.5L539.067,137.5z"/>
								</g>
							</g>
							<g>
								<g>
									<path fill="#FFFFFF" d="M597.659,216.62c0.112,0,0.224,0,0.336,0c1.674,0,3.07-1.396,3.07-3.07s-1.396-3.07-3.07-3.07
										c-0.112,0-0.224,0-0.336,0c-1.674,0-3.07,1.396-3.07,3.07S595.985,216.62,597.659,216.62L597.659,216.62z"/>
								</g>
							</g>
							<g>
								<g>
									<path fill="#FFFFFF" d="M544.618,251.533c0.112,0,0.224,0,0.335,0c1.674,0,3.07-1.396,3.07-3.07
										c0-1.674-1.396-3.07-3.07-3.07c-0.112,0-0.224,0-0.335,0c-1.674,0-3.07,1.396-3.07,3.07
										C541.547,250.137,542.944,251.533,544.618,251.533L544.618,251.533z"/>
								</g>
							</g>
							<g>
								<g>
									<path fill="#FFFFFF" d="M381.123,275.673c0.219,0,0.438,0,0.657,0c1.674,0,3.07-1.396,3.07-3.07s-1.397-3.07-3.07-3.07
										c-0.219,0-0.438,0-0.657,0c-1.674,0-3.07,1.397-3.07,3.07C378.052,274.276,379.449,275.673,381.123,275.673
										L381.123,275.673z"/>
								</g>
							</g>
							<g>
								<g>
									<path fill="#FFFFFF" d="M313.39,232.271c3.96,0,3.96-6.141,0-6.141C309.43,226.131,309.43,232.271,313.39,232.271
										L313.39,232.271z"/>
								</g>
							</g>
							<g>
								<g>
									<path fill="#FFFFFF" d="M241.706,236.821c0.217-0.024,0.434-0.047,0.65-0.071c0.846-0.092,1.548-0.276,2.171-0.899
										c0.573-0.573,0.9-1.36,0.9-2.171c0-1.537-1.403-3.251-3.07-3.07c-0.217,0.023-0.434,0.047-0.65,0.071
										c-0.846,0.093-1.547,0.275-2.171,0.899c-0.573,0.573-0.9,1.36-0.9,2.171s0.326,1.598,0.9,2.171
										C240.057,236.443,240.941,236.905,241.706,236.821L241.706,236.821z"/>
								</g>
							</g>
							<g>
								<g>
									<path fill="#FFFFFF" d="M387.04,165.855c0.136,0,0.271,0,0.407,0c3.96,0,3.96-6.141,0-6.141c-0.136,0-0.271,0-0.407,0
										C383.081,159.714,383.081,165.855,387.04,165.855c0.136,0,0.271,0,0.407,0c3.96,0,3.96-6.141,0-6.141
										c-0.136,0-0.271,0-0.407,0C383.081,159.714,383.081,165.855,387.04,165.855L387.04,165.855z"/>
								</g>
							</g>
							<g>
								<g>
									<path fill="#FFFFFF" d="M336.406,155.333c0.136,0,0.272,0,0.407,0c3.96,0,3.96-6.141,0-6.141c-0.135,0-0.271,0-0.407,0
										C332.446,149.192,332.446,155.333,336.406,155.333c0.136,0,0.272,0,0.407,0c3.96,0,3.96-6.141,0-6.141
										c-0.135,0-0.271,0-0.407,0C332.446,149.192,332.446,155.333,336.406,155.333L336.406,155.333z"/>
								</g>
							</g>
							<g>
								<g>
									<path fill="#FFFFFF" d="M377.177,89.574c3.96,0,3.96-6.141,0-6.141C373.217,83.434,373.217,89.574,377.177,89.574
										L377.177,89.574z"/>
								</g>
							</g>
							<g>
								<g>
									<path fill="#FFFFFF" d="M427.154,98.123c3.96,0,3.96-6.141,0-6.141C423.194,91.982,423.194,98.123,427.154,98.123
										L427.154,98.123z"/>
								</g>
							</g>
							<g>
								<g>
									<path fill="#FFFFFF" d="M412.029,63.27c3.96,0,3.96-6.141,0-6.141C408.069,57.129,408.069,63.27,412.029,63.27
										L412.029,63.27z"/>
								</g>
							</g>
							<g>
								<g>
									<path fill="#FFFFFF" d="M319.09,116.753c0-0.136,0-0.271,0-0.407c0-3.96-6.141-3.96-6.141,0c0,0.136,0,0.271,0,0.407
										C312.95,120.713,319.09,120.713,319.09,116.753c0-0.136,0-0.271,0-0.407c0-3.96-6.141-3.96-6.141,0
										c0,0.136,0,0.271,0,0.407C312.95,120.713,319.09,120.713,319.09,116.753L319.09,116.753z"/>
								</g>
							</g>
							<g>
								<g>
									<path fill="#FFFFFF" d="M275.25,66.558c0.219,0,0.438,0,0.658,0c1.674,0,3.07-1.396,3.07-3.07s-1.397-3.07-3.07-3.07
										c-0.219,0-0.439,0-0.658,0c-1.674,0-3.07,1.396-3.07,3.07C272.18,65.162,273.576,66.558,275.25,66.558L275.25,66.558z"/>
								</g>
							</g>
							<g>
								<g>
									<path fill="#FFFFFF" d="M244.343,62.613c3.96,0,3.96-6.141,0-6.141S240.383,62.613,244.343,62.613L244.343,62.613z"/>
								</g>
							</g>
							<g>
								<g>
									<path fill="#FFFFFF" d="M244.343,111.932c0.219,0,0.438,0,0.657,0c1.674,0,3.07-1.396,3.07-3.07
										c0-1.674-1.396-3.07-3.07-3.07c-0.219,0-0.438,0-0.657,0c-1.674,0-3.07,1.396-3.07,3.07
										C241.273,110.536,242.669,111.932,244.343,111.932L244.343,111.932z"/>
								</g>
							</g>
							<g>
								<g>
									<path fill="#FFFFFF" d="M152.937,69.846c0.136,0,0.271,0,0.407,0c3.96,0,3.96-6.141,0-6.141c-0.136,0-0.271,0-0.407,0
										C148.977,63.706,148.977,69.846,152.937,69.846c0.136,0,0.271,0,0.407,0c3.96,0,3.96-6.141,0-6.141
										c-0.136,0-0.271,0-0.407,0C148.977,63.706,148.977,69.846,152.937,69.846L152.937,69.846z"/>
								</g>
							</g>
							<g>
								<g>
									<path fill="#FFFFFF" d="M125.101,82.558c0-0.219,0-0.438,0-0.657c0-1.674-1.396-3.07-3.07-3.07
										c-1.674,0-3.07,1.396-3.07,3.07c0,0.219,0,0.438,0,0.657c0,1.674,1.396,3.07,3.07,3.07
										C123.705,85.628,125.101,84.232,125.101,82.558L125.101,82.558z"/>
								</g>
							</g>
							<g>
								<g>
									<path fill="#FFFFFF" d="M91.144,205.852c1.929-0.005,3.202-1.517,3.299-3.347c0.093-1.746-1.562-3.452-3.318-3.33
										c-1.669,0.116-3.07,1.309-3.07,3.07c0,1.585,1.399,3.186,3.07,3.07c0.024-0.002,0.048-0.003,0.073-0.005
										c-0.272-0.037-0.544-0.073-0.816-0.109c0.02,0.007,0.04,0.014,0.061,0.021c-0.452-0.263-0.903-0.526-1.355-0.79
										c0.016,0.014,0.032,0.028,0.048,0.042c-0.16-0.207-0.32-0.414-0.48-0.621c0.012,0.019,0.023,0.039,0.035,0.058
										c-0.103-0.245-0.206-0.489-0.31-0.733c0.008,0.023,0.015,0.046,0.022,0.069c-0.037-0.272-0.073-0.544-0.109-0.816
										c0.01,0.05,0.012,0.1,0.005,0.149c0.036-0.272,0.073-0.544,0.109-0.816c-0.006,0.023-0.012,0.047-0.017,0.07
										c0.103-0.245,0.206-0.489,0.309-0.733c-0.01,0.02-0.021,0.04-0.031,0.061c0.16-0.207,0.32-0.415,0.48-0.622
										c-0.015,0.015-0.03,0.03-0.045,0.045c0.207-0.16,0.414-0.32,0.622-0.48c-0.02,0.009-0.04,0.017-0.059,0.025
										c0.517-0.14,1.033-0.279,1.55-0.419c-0.024,0-0.049,0-0.073,0c-1.673,0.004-3.07,1.394-3.07,3.07
										C88.074,204.452,89.47,205.856,91.144,205.852L91.144,205.852z"/>
								</g>
							</g>
							<g>
								<g>
									<path fill="#FFFFFF" d="M161.147,254.345c0.288-1.051,0.146-2.117-0.352-3.081c-0.52-1.005-1.418-1.593-2.45-1.967
										c-1.575-0.571-3.36,0.627-3.777,2.144c-0.471,1.711,0.573,3.207,2.144,3.777c0.039,0.014,0.077,0.028,0.115,0.042
										c-0.245-0.104-0.489-0.207-0.733-0.31c0.075,0.033,0.143,0.076,0.207,0.127c-0.208-0.16-0.415-0.32-0.622-0.48
										c0.063,0.052,0.12,0.111,0.169,0.176c-0.16-0.207-0.32-0.414-0.48-0.621c0.049,0.066,0.091,0.136,0.125,0.211
										c-0.103-0.244-0.206-0.489-0.31-0.733c0.034,0.075,0.059,0.153,0.074,0.233c-0.037-0.272-0.073-0.544-0.11-0.816
										c0.017,0.128,0.018,0.236,0.001,0.363c0.037-0.272,0.073-0.544,0.11-0.816c-0.011,0.039-0.021,0.079-0.032,0.118
										c-0.441,1.614,0.53,3.333,2.144,3.777C158.982,256.932,160.707,255.958,161.147,254.345L161.147,254.345z"/>
								</g>
							</g>
							<g>
								<g>
									<path fill="#FFFFFF" d="M113.565,293.912c0.22-0.439,0.44-0.877,0.66-1.314c0.751-1.496,0.41-3.316-1.101-4.201
										c-1.374-0.805-3.45-0.393-4.201,1.101c-0.22,0.438-0.44,0.876-0.66,1.314c-0.75,1.497-0.41,3.315,1.101,4.201
										C110.738,295.818,112.815,295.407,113.565,293.912L113.565,293.912z"/>
								</g>
							</g>
							<g>
								<g>
									<path fill="#FFFFFF" d="M54.081,265.369c0-0.219,0-0.438,0-0.658c0-1.674-1.396-3.07-3.07-3.07s-3.07,1.397-3.07,3.07
										c0,0.219,0,0.439,0,0.658c0,1.674,1.396,3.07,3.07,3.07C52.684,268.439,54.081,267.043,54.081,265.369L54.081,265.369z"/>
								</g>
							</g>
							<g>
								<g>
									<path fill="#FFFFFF" d="M53.423,326.524c0-0.219,0-0.438,0-0.657c0-1.674-1.396-3.07-3.07-3.07s-3.07,1.397-3.07,3.07
										c0,0.219,0,0.438,0,0.657c0,1.674,1.396,3.07,3.07,3.07C52.026,329.595,53.423,328.198,53.423,326.524L53.423,326.524z"/>
								</g>
							</g>
							<g>
								<g>
									<path fill="#FFFFFF" d="M196.778,346.91c0-0.219,0-0.438,0-0.657c0-1.674-1.396-3.07-3.07-3.07s-3.07,1.397-3.07,3.07
										c0,0.219,0,0.438,0,0.657c0,1.674,1.396,3.07,3.07,3.07S196.778,348.584,196.778,346.91L196.778,346.91z"/>
								</g>
							</g>
							<g>
								<g>
									<path fill="#FFFFFF" d="M395.372,355.46c0-0.219,0-0.439,0-0.658c0-1.674-1.396-3.07-3.07-3.07s-3.07,1.396-3.07,3.07
										c0,0.219,0,0.439,0,0.658c0,1.674,1.396,3.07,3.07,3.07C393.975,358.53,395.372,357.133,395.372,355.46L395.372,355.46z"/>
								</g>
							</g>
							<g>
								<g>
									<path fill="#FFFFFF" d="M518.56,317.758c3.96,0,3.96-6.141,0-6.141C514.6,311.618,514.6,317.758,518.56,317.758
										L518.56,317.758z"/>
								</g>
							</g>
							<g>
								<g>
									<path fill="#FFFFFF" d="M603.828,297.591c0-0.219,0-0.439,0-0.658c0-1.674-1.396-3.07-3.07-3.07s-3.07,1.396-3.07,3.07
										c0,0.219,0,0.439,0,0.658c0,1.674,1.396,3.07,3.07,3.07C602.432,300.662,603.828,299.265,603.828,297.591L603.828,297.591z
										"/>
								</g>
							</g>
							<g>
								<g>
									<path fill="#FFFFFF" d="M734.249,321.704c3.96,0,3.96-6.141,0-6.141C730.289,315.564,730.289,321.704,734.249,321.704
										L734.249,321.704z"/>
								</g>
							</g>
							<g>
								<g>
									<path fill="#FFFFFF" d="M769.102,213.859c0.22,0,0.438,0,0.658,0c1.674,0,3.07-1.396,3.07-3.07
										c0-1.674-1.396-3.07-3.07-3.07c-0.22,0-0.438,0-0.658,0c-1.674,0-3.07,1.396-3.07,3.07S767.429,213.859,769.102,213.859
										L769.102,213.859z"/>
								</g>
							</g>
							<g>
								<g>
									<path fill="#FFFFFF" d="M677.697,184.267c3.96,0,3.96-6.141,0-6.141C673.737,178.126,673.737,184.267,677.697,184.267
										L677.697,184.267z"/>
								</g>
							</g>
							<g>
								<g>
									<path fill="#FFFFFF" d="M772.849,135.363c0.22,0.219,0.439,0.438,0.658,0.658c1.182,1.184,3.16,1.182,4.342,0
										c1.184-1.184,1.182-3.158,0-4.342c-0.219-0.22-0.438-0.439-0.658-0.658c-1.184-1.181-3.157-1.184-4.342,0
										C771.667,132.203,771.664,134.182,772.849,135.363L772.849,135.363z"/>
								</g>
							</g>
							<g>
								<g>
									<path fill="#FFFFFF" d="M778.967,100.753c0.136,0,0.271,0,0.406,0c3.96,0,3.96-6.141,0-6.141c-0.135,0-0.271,0-0.406,0
										C775.007,94.612,775.007,100.753,778.967,100.753c0.136,0,0.271,0,0.406,0c3.96,0,3.96-6.141,0-6.141
										c-0.135,0-0.271,0-0.406,0C775.007,94.612,775.007,100.753,778.967,100.753L778.967,100.753z"/>
								</g>
							</g>
							<g>
								<g>
									<path fill="#FFFFFF" d="M887.469,111.932c0.22,0,0.438,0,0.658,0c1.674,0,3.07-1.396,3.07-3.07
										c0-1.674-1.396-3.07-3.07-3.07c-0.22,0-0.438,0-0.658,0c-1.674,0-3.07,1.396-3.07,3.07
										C884.398,110.536,885.795,111.932,887.469,111.932L887.469,111.932z"/>
								</g>
							</g>
							<g>
								<g>
									<path fill="#FFFFFF" d="M867.301,76.64c0,0.136,0,0.271,0,0.407c0,3.96,6.141,3.96,6.141,0c0-0.136,0-0.271,0-0.407
										C873.441,72.68,867.301,72.68,867.301,76.64c0,0.136,0,0.271,0,0.407c0,3.96,6.141,3.96,6.141,0c0-0.136,0-0.271,0-0.407
										C873.441,72.68,867.301,72.68,867.301,76.64L867.301,76.64z"/>
								</g>
							</g>
							<g>
								<g>
									<path fill="#FFFFFF" d="M892.565,217.371c0.024-0.217,0.048-0.433,0.071-0.65c0.181-1.668-1.533-3.07-3.07-3.07
										c-0.81,0-1.598,0.326-2.171,0.899c-0.623,0.623-0.808,1.325-0.899,2.171c-0.023,0.217-0.047,0.433-0.071,0.65
										c-0.085,0.764,0.379,1.65,0.899,2.171c0.573,0.573,1.359,0.899,2.171,0.899s1.598-0.326,2.171-0.899
										C892.291,218.917,892.471,218.217,892.565,217.371L892.565,217.371z"/>
								</g>
							</g>
							<g>
								<g>
									<path fill="#FFFFFF" d="M970.983,69.624c-0.438,0-0.877,0-1.315,0c-1.674,0-3.07,1.397-3.07,3.07
										c0,1.674,1.396,3.07,3.07,3.07c0.438,0,0.877,0,1.315,0c1.674,0,3.07-1.396,3.07-3.07
										C974.054,71.021,972.657,69.624,970.983,69.624L970.983,69.624z"/>
								</g>
							</g>
							<g>
								<g>
									<path fill="#FFFFFF" d="M1073.567,91.325c-0.219,0-0.438,0-0.657,0c-1.674,0-3.07,1.396-3.07,3.07
										c0,1.674,1.397,3.07,3.07,3.07c0.219,0,0.438,0,0.657,0c1.674,0,3.07-1.396,3.07-3.07
										C1076.638,92.721,1075.241,91.325,1073.567,91.325L1073.567,91.325z"/>
								</g>
							</g>
							<g>
								<g>
									<path fill="#FFFFFF" d="M1055.158,174.367c0.973-0.005,1.801-0.371,2.512-1.03c0.738-0.685,0.968-1.647,1.059-2.604
										c0.094-0.994-0.436-1.888-1.012-2.628c-0.576-0.742-1.651-1.082-2.556-1.089c-1.674-0.015-3.07,1.408-3.07,3.07
										c0,1.685,1.396,3.056,3.07,3.07c0.027,0,0.056,0,0.083,0c-0.271-0.037-0.544-0.073-0.816-0.109
										c0.051,0.005,0.099,0.019,0.144,0.042c-0.244-0.103-0.489-0.206-0.733-0.309c0.021,0.013,0.04,0.026,0.061,0.039
										c-0.207-0.16-0.414-0.32-0.621-0.48c0.038,0.031,0.07,0.067,0.098,0.108c-0.16-0.208-0.32-0.415-0.48-0.622
										c0.013,0.022,0.025,0.043,0.038,0.065c-0.104-0.244-0.206-0.489-0.31-0.733c0.032,0.076,0.052,0.146,0.068,0.228
										c-0.036-0.272-0.073-0.544-0.109-0.816c0.007,0.085,0.007,0.162-0.001,0.246c0.037-0.272,0.073-0.544,0.109-0.816
										c-0.007,0.053-0.019,0.105-0.038,0.156c0.104-0.244,0.207-0.489,0.31-0.733c-0.017,0.049-0.04,0.094-0.068,0.137
										c0.16-0.207,0.32-0.414,0.48-0.622c-0.027,0.041-0.06,0.077-0.099,0.107c0.207-0.16,0.414-0.32,0.621-0.48
										c-0.02,0.013-0.04,0.026-0.061,0.039c0.245-0.104,0.489-0.206,0.733-0.31c-0.045,0.023-0.093,0.037-0.144,0.042
										c0.272-0.037,0.544-0.073,0.816-0.11c-0.027,0.001-0.056,0.001-0.083,0.001c-1.674,0.009-3.07,1.39-3.07,3.07
										C1052.088,172.964,1053.484,174.376,1055.158,174.367L1055.158,174.367z"/>
								</g>
							</g>
							<g>
								<g>
									<path fill="#FFFFFF" d="M1147.659,235.12c0-0.219,0-0.438,0-0.658c0-1.674-1.396-3.07-3.07-3.07s-3.07,1.396-3.07,3.07
										c0,0.219,0,0.438,0,0.658c0,1.674,1.396,3.07,3.07,3.07C1146.263,238.19,1147.659,236.794,1147.659,235.12L1147.659,235.12
										z"/>
								</g>
							</g>
							<g>
								<g>
									<path fill="#FFFFFF" d="M1102.7,291.871c0.22-0.219,0.438-0.438,0.658-0.657c1.186-1.181,1.181-3.161,0-4.342
										c-1.185-1.185-3.156-1.181-4.342,0c-0.22,0.219-0.44,0.438-0.658,0.657c-1.184,1.183-1.183,3.159,0,4.342
										C1099.541,293.054,1101.518,293.053,1102.7,291.871L1102.7,291.871z"/>
								</g>
							</g>
							<g>
								<g>
									<path fill="#FFFFFF" d="M1131.529,353.872c-0.223-0.436-0.445-0.873-0.667-1.31c-0.757-1.491-2.822-1.909-4.201-1.101
										c-1.506,0.882-1.858,2.708-1.102,4.201c0.222,0.436,0.444,0.873,0.667,1.31c0.761,1.489,2.819,1.91,4.201,1.101
										C1131.932,357.192,1132.29,355.363,1131.529,353.872L1131.529,353.872z"/>
								</g>
							</g>
							<g>
								<g>
									<path fill="#FFFFFF" d="M1048.777,414.842c0.22-0.22,0.44-0.44,0.658-0.66c1.18-1.186,1.185-3.157,0-4.342
										c-1.181-1.181-3.162-1.186-4.342,0c-0.219,0.22-0.439,0.439-0.658,0.66c-1.182,1.185-1.184,3.158,0,4.342
										C1045.617,416.023,1047.597,416.026,1048.777,414.842L1048.777,414.842z"/>
								</g>
							</g>
							<g>
								<g>
									<path fill="#FFFFFF" d="M959.587,308.113c0-0.219,0-0.439,0-0.658c0-1.674-1.397-3.07-3.07-3.07
										c-1.674,0-3.07,1.396-3.07,3.07c0,0.219,0,0.439,0,0.658c0,1.674,1.396,3.07,3.07,3.07
										C958.19,311.183,959.587,309.787,959.587,308.113L959.587,308.113z"/>
								</g>
							</g>
							<g>
								<g>
									<path fill="#FFFFFF" d="M665.44,103.894c0.533,0,1.067,0,1.601,0c3.96,0,3.96-6.141,0-6.141c-0.533,0-1.067,0-1.601,0
										C661.48,97.753,661.48,103.894,665.44,103.894c0.533,0,1.067,0,1.601,0c3.96,0,3.96-6.141,0-6.141
										c-0.533,0-1.067,0-1.601,0C661.48,97.753,661.48,103.894,665.44,103.894L665.44,103.894z"/>
								</g>
							</g>
							<g>
								<g>
									<path fill="#FFFFFF" d="M622.276,139.756c0.845-0.12,1.689-0.239,2.535-0.358c0.74-0.104,1.476-0.797,1.835-1.411
										c0.415-0.709,0.527-1.574,0.31-2.366c-0.212-0.767-0.725-1.433-1.411-1.834c-0.782-0.458-1.507-0.431-2.366-0.31
										c-0.845,0.119-1.689,0.238-2.535,0.358c-0.74,0.104-1.476,0.797-1.835,1.411c-0.415,0.709-0.527,1.574-0.31,2.366
										c0.212,0.767,0.725,1.433,1.411,1.834C620.691,139.905,621.417,139.878,622.276,139.756L622.276,139.756z"/>
								</g>
							</g>
						</g>
					</g>
				</g>
				<g>
					<defs>
						<rect id="SVGID_12_" width="1115.473" height="857.181"/>
					</defs>
					<clipPath id="SVGID_13_">
						<use xlink:href="#SVGID_12_"  overflow="visible"/>
					</clipPath>
				</g>
				<g>
					<defs>
						<rect id="SVGID_14_" width="1115.473" height="857.181"/>
					</defs>
					<clipPath id="SVGID_15_">
						<use xlink:href="#SVGID_14_"  overflow="visible"/>
					</clipPath>
					<rect y="511.242" clip-path="url(#SVGID_15_)" fill="#5384C9" width="1224.138" height="345.939"/>
				</g>
				<g>
					<defs>
						<rect id="SVGID_16_" width="1115.473" height="857.181"/>
					</defs>
					<clipPath id="SVGID_17_">
						<use xlink:href="#SVGID_16_"  overflow="visible"/>
					</clipPath>
					<g clip-path="url(#SVGID_17_)">
						<rect y="494.138" fill="#6B9FDD" width="1224.138" height="17.104"/>
						<rect y="481.273" fill="#65A8EA" width="1224.138" height="12.865"/>
					</g>
				</g>
				<g>
					<defs>
						<rect id="SVGID_18_" width="1115.473" height="857.181"/>
					</defs>
					<clipPath id="SVGID_19_">
						<use xlink:href="#SVGID_18_"  overflow="visible"/>
					</clipPath>
				</g>
			</g>
		</g>
	</g>
	<g id="Layer_3">
		<g display="inline">
			<polygon opacity="0.6" fill="#3B6487" enable-background="new    " points="1272.142,374.623 1239.802,428.442 1216.09,342.504 
				1194.529,401.006 1168.656,262.208 1134.164,397.565 1123.386,376.917 1082.423,481.76 1054.396,370.034 1030.683,428.968 
				1015.591,365.447 935.826,408.415 907.796,310.386 864.679,418.214 825.875,351.681 769.822,395.27 724.546,277.026 
				670.652,419.359 662.027,392.976 636.157,428.442 618.911,298.914 597.405,378.438 567.359,428.442 543.645,342.504 
				522.086,401.006 496.213,262.208 461.721,397.565 450.942,376.917 409.979,481.76 381.952,370.034 358.238,428.968 
				343.146,365.447 263.382,408.415 235.353,310.386 192.236,418.214 153.431,351.681 97.377,395.27 52.103,277.026 -1.792,419.359 
				-10.417,392.976 -36.288,428.442 -53.534,298.914 -96.651,458.36 -100.732,436.33 -100.732,615.512 571.71,615.512 
				601.149,615.512 1273.593,615.512 1273.593,379.016 			"/>
			<polygon fill="#3B6487" points="1237.587,561.57 1214.546,496.534 1187.956,537.768 1168.46,471.928 1150.734,516.749 
				1129.462,410.406 1101.104,514.112 1092.242,498.292 1058.564,578.622 1035.519,493.019 1016.022,538.173 1003.614,489.503 
				938.033,522.425 914.989,447.318 879.537,529.933 847.631,478.957 801.546,512.354 764.323,421.759 720.009,530.811 
				712.918,510.597 691.649,537.768 677.469,438.528 642.02,560.693 629.612,498.292 601.149,558.698 601.149,438.528 
				571.934,538.372 571.636,537.768 571.636,539.387 565.143,561.57 542.101,496.534 515.513,537.768 496.015,471.928 
				478.291,516.749 457.019,410.406 428.66,514.112 419.798,498.292 386.121,578.622 363.077,493.019 343.579,538.173 
				331.171,489.503 265.589,522.425 242.544,447.318 207.094,529.933 175.188,478.957 129.103,512.354 91.878,421.759 
				47.565,530.811 40.475,510.597 19.206,537.768 5.026,438.528 -30.424,560.693 -42.832,498.292 -80.682,578.622 -100.807,537.768 
				-100.807,623.09 -100.807,681.097 571.636,681.097 601.149,681.097 1273.593,681.097 1273.593,438.528 			"/>
		</g>
	</g>
	<g id="Layer_2" display="inline">
		<g>
			<g>
				<g>
					<g>
						<path fill="#00284F" d="M-76.95,306.057c4.959-7.691,7.851-16.843,7.851-26.676c0-27.226-22.071-49.297-49.298-49.297
							c-27.222,0-49.295,22.071-49.295,49.297c0,9.833,2.893,18.984,7.853,26.676H-76.95z"/>
						<path fill="#00284F" d="M20.414,306.057c8.984-12.768,14.277-28.322,14.277-45.12c0-43.364-35.154-78.516-78.514-78.516
							c-43.365,0-78.517,35.152-78.517,78.516c0,16.798,5.294,32.352,14.278,45.12H20.414z"/>
						<path fill="#00284F" d="M82.342,306.057c2.449-6.514,3.802-13.564,3.802-20.935c0-32.838-26.622-59.459-59.461-59.459
							c-32.838,0-59.459,26.621-59.459,59.459c0,7.371,1.35,14.421,3.8,20.935H82.342z"/>
					</g>
				</g>
				<path fill="#264675" d="M-70.944,278.838c0,3.095-2.507,5.6-5.597,5.6c-3.091,0-5.6-2.505-5.6-5.6
					c0-3.087,2.508-5.593,5.6-5.593C-73.451,273.245-70.944,275.751-70.944,278.838z"/>
				<path fill="#264675" d="M-80.558,235.677c0,3.969-3.214,7.183-7.177,7.183c-3.966,0-7.185-3.214-7.185-7.183
					c0-3.961,3.22-7.176,7.185-7.176C-83.773,228.501-80.558,231.716-80.558,235.677z"/>
				<path fill="#264675" d="M-146.024,297.303c0,2.027-1.641,3.668-3.665,3.668c-2.024,0-3.668-1.641-3.668-3.668
					c0-2.021,1.644-3.664,3.668-3.664C-147.665,293.639-146.024,295.282-146.024,297.303z"/>
				<path fill="#264675" d="M23.53,234.153c0,3.094-2.504,5.6-5.593,5.6c-3.092,0-5.601-2.506-5.601-5.6
					c0-3.087,2.509-5.592,5.601-5.592C21.026,228.561,23.53,231.066,23.53,234.153z"/>
				<path fill="#264675" d="M6.114,286.57c0,5.933-4.806,10.735-10.726,10.735c-5.928,0-10.736-4.802-10.736-10.735
					c0-5.919,4.808-10.722,10.736-10.722C1.308,275.848,6.114,280.651,6.114,286.57z"/>
				<path fill="#264675" d="M-29.496,220.327c-5.599,6.141-15.798,5.962-15.798,5.962s-1.121-10.146,4.474-16.286
					c5.605-6.143,15.799-5.96,15.799-5.96S-23.892,214.185-29.496,220.327z"/>
				<path fill="#264675" d="M8.842,265.071c-8.809-5.16-11.198-17.46-11.198-17.46s11.902-3.939,20.708,1.216
					c8.811,5.164,11.199,17.457,11.199,17.457S17.655,270.234,8.842,265.071z"/>
				<path fill="#264675" d="M-112.486,280.566c-7.946,6.411-20.292,4.287-20.292,4.287s0.531-12.525,8.472-18.934
					c7.951-6.411,20.292-4.287,20.292-4.287S-104.533,274.155-112.486,280.566z"/>
				<path fill="#264675" d="M-31.99,281.734c-4.259,3.437-10.877,2.299-10.877,2.299s0.287-6.715,4.541-10.149
					c4.262-3.436,10.877-2.298,10.877-2.298S-27.728,278.299-31.99,281.734z"/>
				<path fill="#264675" d="M49.905,289.739c-4.931-2.369-6.749-8.835-6.749-8.835s6.185-2.627,11.117-0.26
					c4.935,2.372,6.748,8.834,6.748,8.834S54.838,292.111,49.905,289.739z"/>
			</g>
			<g>
				<g>
					<g>
						<path fill="#00284F" d="M-21.4,114.354c8.904-13.811,14.096-30.245,14.096-47.898c0-48.885-39.629-88.513-88.516-88.513
							c-48.878,0-88.51,39.628-88.51,88.513c0,17.653,5.194,34.087,14.1,47.898H-21.4z"/>
						<path fill="#00284F" d="M153.418,114.354c16.132-22.926,25.636-50.853,25.636-81.015c0-77.86-63.12-140.976-140.974-140.976
							c-77.863,0-140.979,63.116-140.979,140.976c0,30.162,9.505,58.088,25.637,81.015H153.418z"/>
						<path fill="#00284F" d="M264.613,114.354c4.398-11.695,6.826-24.356,6.826-37.589c0-58.962-47.799-106.76-106.763-106.76
							c-58.961,0-106.759,47.798-106.759,106.76c0,13.234,2.423,25.894,6.823,37.589H264.613z"/>
					</g>
				</g>
				<path fill="#264675" d="M-10.617,65.48c0,5.557-4.502,10.055-10.049,10.055c-5.551,0-10.055-4.498-10.055-10.055
					c0-5.544,4.504-10.042,10.055-10.042C-15.119,55.438-10.617,59.936-10.617,65.48z"/>
				<path fill="#264675" d="M-27.88-12.017c0,7.127-5.771,12.898-12.886,12.898c-7.121,0-12.902-5.771-12.902-12.898
					c0-7.112,5.782-12.885,12.902-12.885C-33.651-24.902-27.88-19.129-27.88-12.017z"/>
				<path fill="#264675" d="M-145.424,98.635c0,3.64-2.946,6.585-6.581,6.585c-3.634,0-6.585-2.946-6.585-6.585
					c0-3.631,2.951-6.579,6.585-6.579C-148.37,92.056-145.424,95.004-145.424,98.635z"/>
				<path fill="#264675" d="M159.014-14.753c0,5.556-4.497,10.055-10.043,10.055c-5.55,0-10.056-4.498-10.056-10.055
					c0-5.543,4.506-10.041,10.056-10.041C154.517-24.794,159.014-20.296,159.014-14.753z"/>
				<path fill="#264675" d="M127.742,79.364c0,10.65-8.628,19.274-19.258,19.274c-10.643,0-19.277-8.624-19.277-19.274
					c0-10.628,8.633-19.252,19.277-19.252C119.114,60.112,127.742,68.736,127.742,79.364z"/>
				<path fill="#264675" d="M63.804-39.577C53.751-28.551,35.438-28.873,35.438-28.873S33.425-47.09,43.47-58.114
					c10.065-11.029,28.368-10.702,28.368-10.702S73.866-50.606,63.804-39.577z"/>
				<path fill="#264675" d="M132.641,40.761c-15.816-9.265-20.105-31.349-20.105-31.349s21.37-7.073,37.181,2.183
					c15.821,9.273,20.108,31.344,20.108,31.344S148.465,50.032,132.641,40.761z"/>
				<path fill="#264675" d="M-85.206,68.582c-14.266,11.512-36.433,7.698-36.433,7.698s0.954-22.49,15.211-33.997
					c14.277-11.511,36.434-7.698,36.434-7.698S-70.926,57.072-85.206,68.582z"/>
				<path fill="#264675" d="M59.327,70.68c-7.647,6.17-19.531,4.126-19.531,4.126s0.515-12.056,8.153-18.222
					c7.652-6.17,19.531-4.126,19.531-4.126S66.979,64.511,59.327,70.68z"/>
				<path fill="#264675" d="M206.37,85.053c-8.854-4.253-12.118-15.862-12.118-15.862s11.105-4.717,19.96-0.468
					c8.86,4.26,12.116,15.862,12.116,15.862S215.228,89.312,206.37,85.053z"/>
			</g>
		</g>
		<path fill="#00284F" d="M28.972,599.477l15.25-1.653c-2.381-5.434-5.917-10.243-10.305-14.123l-19.946,13.143l13.799-17.635
			c-5.897-3.504-12.756-5.555-20.088-5.662l-3.845,9.714l1.615-9.688c-4.458,0.175-8.729,1.071-12.706,2.576l4.605,16.84
			l-8.861-14.939c-3.371,1.741-6.461,3.941-9.198,6.521l3.872,6.392l-5.616-4.646c-2.223,2.367-4.167,5.001-5.776,7.846
			l20.719,11.801l-23.084-6.851c-1.842,4.631-2.864,9.674-2.864,14.959c0,0.886,0.039,1.763,0.094,2.636h80.89
			c0.057-0.873,0.095-1.75,0.095-2.636c0-3.88-0.557-7.627-1.575-11.18L28.972,599.477z"/>
		<g>
			<rect x="147.454" y="40.063" fill="#264675" width="149.067" height="831.321"/>
			<rect x="147.454" y="40.063" fill="#00284F" width="74.534" height="831.321"/>
			<polygon fill="#00284F" points="184.72,189.095 296.521,141.475 296.521,40.063 221.988,40.063 			"/>
			<path fill="#00284F" d="M-116.089,263.151l36.019-34.018c7.235,20.185,18.659,39.239,34.324,55.826
				c60.478,64.036,161.243,67.165,225.582,7.212l31.822,33.694c-82.95,77.527-213.047,73.56-291.099-9.085
				C-94.821,300.496-107.023,282.364-116.089,263.151z"/>
			<polygon fill="#00284F" points="164.449,157.851 119.59,134.252 119.59,155.09 152.027,199.26 			"/>
			<g>
				<path fill="#00284F" d="M221.988,483.238v15.788l353.477-142.698v-6.13C509.553,377.896,325.332,440.137,221.988,483.238z"/>
				<path fill="#264675" d="M347.56,408.256l46.027-83.976h-15.396l-77.234,94.711l-78.97,24.419v39.825
					c103.345-43.099,287.566-105.34,353.477-133.038v-1.852L347.56,408.256z"/>
			</g>
			<g>
				<path fill="#264675" d="M279.529,303.713c85.333-85.333,170.667-170.667,256-256c11.468-11.468,11.468-30.627,0-42.095
					s-30.627-11.468-42.095,0c-85.334,85.333-170.667,170.667-256,256c-11.468,11.468-11.468,30.627,0,42.095
					C248.902,315.18,268.061,315.18,279.529,303.713L279.529,303.713z"/>
			</g>
		</g>
		<g>
			<path fill="#426FA5" d="M207.49,236.035c0,0-3.59,24.46,28.74,33.532C236.231,269.567,242.072,242.757,207.49,236.035z"/>
			<path fill="#426FA5" d="M159.543,305.31c0,0-24.496,3.333-24.247,36.911C135.296,342.222,162.674,340.401,159.543,305.31z"/>
			<path fill="#00284F" d="M266.299,470.758c0,0,9.643-22.763-19.353-39.696C246.946,431.061,234.53,455.531,266.299,470.758z"/>
			<path fill="#264675" d="M160.318,563.004c0,0,24.198,5.057,35.204-26.667C195.522,536.337,169.113,528.888,160.318,563.004z"/>
		</g>
	</g>
</g>
<g id="bottom" display="none">
	<g display="inline">
		<g>
			<g>
				<g>
					<path fill="#264675" d="M161.068,413.493c0.025-0.06,0.051-0.119,0.077-0.179c3.395-7.938-4.168-15.719-11.773-13.516
						c1.185,1.099,2.097,2.246,2.097,3.698c-3.483,45.27-31.34,84.444-47.881,125.36c-2.612,6.095-6.094,12.189-6.964,19.153
						c6.396-2.46,10.567-7.424,14.401-12.689c-1.458,1.722-2.914,3.441-4.368,5.16C124.794,498.152,142.931,455.823,161.068,413.493
						z"/>
				</g>
				<g>
					<path fill="#264675" d="M281.451,398.313c2.502,3.543,3.281,8.113,1.473,11.277c-17.411,31.34-47.881,50.493-74.869,73.998
						c-25.247,22.635-53.975,40.047-74.869,66.162c6.063-0.672,10.565-4.987,15.919-7.714c-2.565,1.204-5.081,2.519-7.518,3.974
						c48.845-44.332,113.242-74.624,149.118-128.842C295.948,409.247,290.446,398.884,281.451,398.313z"/>
				</g>
				<g>
					<path fill="#264675" d="M195.868,548.882c-25.247,16.54-51.363,23.504-75.739,37.434c2.306,0,4.611-0.154,6.918-0.396
						c26.718-7.918,52.108-20.286,74.83-36.417c4.634-3.289,4.515-9.521,1.095-12.978
						C202.619,541.316,200.431,545.838,195.868,548.882z"/>
				</g>
				<g>
					<path fill="#00284F" d="M281.451,398.313c-0.642-0.041-1.3-0.035-1.975,0.027c-6.615,0.623-13.534,3.019-19.477,5.83
						c-60.291,28.518-105.766,80.156-148.976,131.15c-3.833,5.266-8.005,10.229-14.401,12.689
						c0.871-6.965,4.353-13.059,6.964-19.153c16.541-40.916,44.399-80.091,47.881-125.36c0-1.452-0.912-2.6-2.097-3.698
						c-0.748,0.216-1.498,0.526-2.238,0.946c-12.782,7.264-23.189,19.605-32.007,31.787C80.287,480.661,13.61,577.546-0.656,635.224
						l-21.931,30.614c62.733-17.817,124.671-38.436,185.568-61.77c0.123-0.047,0.246-0.095,0.369-0.142
						c8.699-3.396,6.843-16.202-2.455-17.059c-11.651-1.073-23.384-1.268-35.064-0.582c0.407-0.117,0.809-0.246,1.215-0.366
						c-2.306,0.241-4.612,0.396-6.918,0.396c24.376-13.93,50.492-20.893,75.739-37.434c4.563-3.044,6.751-7.565,7.104-12.357
						c-1.251-1.266-2.942-2.163-5.009-2.402c-15.856-1.833-32.218,0.576-46.834,6.983c0.948-0.381,1.926-0.702,2.952-0.93
						c-1.026,0.227-2.004,0.549-2.952,0.93c-0.679,0.298-1.35,0.615-2.023,0.932c-5.354,2.727-9.856,7.042-15.919,7.714
						c20.894-26.115,49.622-43.527,74.869-66.162c26.987-23.505,57.458-42.658,74.869-73.998
						C284.732,406.427,283.953,401.856,281.451,398.313z"/>
				</g>
			</g>
			<g>
				<g>
					<path fill="#00284F" d="M235.563,724.874l1.075,7.778c11.808-23.931,19.446-51.616,12.134-77.28
						C233.894,674.785,228.845,701.356,235.563,724.874z"/>
				</g>
				<g>
					<path fill="#00284F" d="M280.215,683.286c11.402-17.529,20.544-37.036,22.775-57.827
						c-15.874,8.724-28.509,22.656-37.478,38.392c-8.97,15.735-14.447,33.25-18.128,50.984l-4.89,18.551
						C255.107,716.707,268.813,700.814,280.215,683.286z"/>
				</g>
				<g>
					<path fill="#00284F" d="M251.839,724.76l-13.738,18.049c31.1-18.298,63.511-37.874,81.868-68.94
						C292.494,682.723,268.126,700.926,251.839,724.76z"/>
				</g>
			</g>
			<g>
				<g>
					<path fill="#00284F" d="M894.008,728.04c0.703,0.391,1.408,0.779,2.121,1.152l8.831,6.346
						c-12.711-34.599-33.134-68.6-65.717-85.801C851.45,679.068,868.967,708.192,894.008,728.04z"/>
				</g>
				<g>
					<path fill="#264675" d="M839.244,649.737c-0.086-0.047-0.171-0.095-0.256-0.141c5.155,32.665,26.102,62.435,55.021,78.443
						C868.967,708.192,851.45,679.068,839.244,649.737z"/>
				</g>
				<g>
					<path fill="#00284F" d="M909.601,719.649c-3.789-25.073-6.717-50.306-12.588-74.964c-6.605-27.745-17.233-55.114-35.447-77.032
						C858.895,622.232,878.69,675.38,909.601,719.649z"/>
				</g>
				<g>
					<path fill="#264675" d="M861.566,567.653c-0.282-0.34-0.562-0.682-0.847-1.018c-6.397,24.255-4.475,50.233,2.756,74.254
						c7.229,24.021,19.579,46.237,33.862,66.859l13.949,22.611c-0.587-3.565-1.146-7.137-1.686-10.711
						C878.69,675.38,858.895,622.232,861.566,567.653z"/>
				</g>
				<g>
					<path fill="#264675" d="M925.766,596.741c-0.087-0.314-0.17-0.626-0.258-0.939c-17.34,36.025-22.331,77.854-13.958,116.947
						l4.999,31.017c0.298-1.279,0.596-2.561,0.893-3.845C908.029,692.469,912.268,643.004,925.766,596.741z"/>
				</g>
				<g>
					<path fill="#00284F" d="M925.766,596.741c-13.498,46.263-17.737,95.727-8.324,143.18
						C928.375,692.715,938.662,643.278,925.766,596.741z"/>
				</g>
			</g>
			<g>
				<g>
					<path fill="#00284F" d="M850.864,727.239l6.339-0.733c-19.227-10.024-41.579-16.729-62.558-11.251
						C810.146,727.69,831.64,732.272,850.864,727.239z"/>
				</g>
				<g>
					<path fill="#00284F" d="M817.887,690.217c-14.032-9.579-29.713-17.357-46.563-19.543c6.8,13.052,17.889,23.566,30.51,31.137
						c12.62,7.57,26.75,12.335,41.088,15.646l14.98,4.307C844.582,711.216,831.92,699.795,817.887,690.217z"/>
				</g>
				<g>
					<path fill="#00284F" d="M851.065,714.015l14.414,11.486c-14.303-25.594-29.619-52.274-54.523-67.747
						C817.653,680.233,831.998,700.355,851.065,714.015z"/>
				</g>
			</g>
			<g>
				<g>
					<g>
						<path fill="#264675" d="M1098.8,605.736c-11.727-8.667-25.492-22.942-15.805-37.727c7.138-11.216,22.432-9.687,34.668-10.706
							c1.529-0.51,3.06-1.53,4.588-3.06c-12.236-10.196-24.981-18.863-38.236-28.55c-16.824-11.726-26.002-28.04-30.08-47.413
							c-3.543-17.715,4.071-33.121,11.813-48.225c-8.426,5.181-14.094,14.322-17.205,23.821c-5.28,16.121-4.177,34.239,3.021,49.601
							c10.693,22.82,32.877,37.559,54.422,50.842c-12.691-6.549-30.629,2.057-35.308,15.992
							c-4.993,14.868,2.717,31.865,15.208,41.353c12.491,9.484,28.712,12.652,44.388,13.163c2.975,0.096,7.205,0.186,12.223,0.243
							c-6.273-2.168-12.357-4.886-18.206-8.118C1115.624,612.363,1106.447,611.853,1098.8,605.736z"/>
					</g>
					<g>
						<path fill="#00284F" d="M1215.814,621.194c-1.351-34.275-2.702-68.551-4.052-102.826
							c-0.432-10.956-2.945-24.659-13.566-27.386c-11.911-3.059-20.763,10.646-25.396,22.037
							c-10.821-28.536-29.753-53.943-53.999-72.477c-14.361-10.976-33.682-19.749-50.061-12.104
							c-1.034,0.482-2.031,1.024-2.992,1.616c-7.742,15.104-15.356,30.51-11.813,48.225c4.078,19.373,13.256,35.688,30.08,47.413
							c13.255,9.687,26,18.354,38.236,28.55c-1.528,1.529-3.059,2.55-4.588,3.06c-12.236,1.02-27.53-0.51-34.668,10.706
							c-9.688,14.785,4.078,29.06,15.805,37.727c7.646,6.117,16.824,6.627,25.491,11.216c5.849,3.232,11.933,5.95,18.206,8.118
							C1164.899,625.321,1203.054,624.883,1215.814,621.194z"/>
					</g>
				</g>
			</g>
			<g>
				<g>
					<g>
						<path fill="#264675" d="M1021.869,691.082c-8.64-6.386-18.78-16.904-11.644-27.797c5.259-8.263,16.526-7.137,25.542-7.888
							c1.126-0.375,2.254-1.127,3.38-2.254c-9.014-7.512-18.405-13.898-28.171-21.035c-12.395-8.639-19.157-20.659-22.162-34.933
							c-2.609-13.052,2.999-24.401,8.703-35.53c-6.207,3.816-10.383,10.552-12.675,17.551c-3.891,11.878-3.078,25.227,2.227,36.544
							c7.877,16.815,24.222,27.673,40.095,37.46c-9.351-4.825-22.565,1.515-26.014,11.781c-3.677,10.955,2.003,23.479,11.206,30.468
							c9.202,6.988,21.152,9.322,32.703,9.698c2.19,0.07,5.309,0.138,9.004,0.18c-4.62-1.598-9.104-3.601-13.413-5.981
							C1034.265,695.965,1027.503,695.589,1021.869,691.082z"/>
					</g>
					<g>
						<path fill="#00284F" d="M1108.081,702.47c-0.995-25.252-1.99-50.506-2.985-75.758c-0.318-8.073-2.17-18.168-9.995-20.177
							c-8.776-2.253-15.297,7.843-18.711,16.235c-7.973-21.023-21.921-39.743-39.784-53.398
							c-10.58-8.086-24.816-14.551-36.884-8.917c-0.763,0.354-1.496,0.755-2.205,1.19c-5.704,11.129-11.313,22.478-8.703,35.53
							c3.005,14.273,9.767,26.294,22.162,34.933c9.766,7.137,19.157,13.523,28.171,21.035c-1.126,1.127-2.254,1.879-3.38,2.254
							c-9.016,0.751-20.283-0.375-25.542,7.888c-7.137,10.893,3.004,21.411,11.644,27.797c5.635,4.507,12.396,4.883,18.781,8.264
							c4.31,2.381,8.793,4.384,13.413,5.981C1070.568,705.512,1098.68,705.188,1108.081,702.47z"/>
					</g>
				</g>
			</g>
		</g>
		<g>
			<g>
				<path fill="#00284F" d="M1402.71,635.131c-11.245-50.369-53.446-91.343-103.071-105.51s-104.866-2.874-147.787,25.783
					c-35.51,23.709-64.717,64.665-56.873,106.637c-65.71-29.462-151.937,0.758-184.882,64.791
					c-7.604-17.617-30.456-24.28-49.11-19.784c-18.653,4.496-34.025,17.287-48.663,29.694
					c-7.993-16.065-26.385-26.301-44.249-24.629c-17.864,1.671-34.037,15.143-38.912,32.411
					c-20.67-68.214-102.642-102.011-173.283-92.513c-70.642,9.496-132.228,51.12-190.906,91.583
					c-27.746-34.267-83.369-41.373-118.842-15.186c-5.325-50.497-66.849-86.029-113.249-65.407
					C116.99,590.914,64.576,527.875-3.4,499.094c-34.84-14.751-73.296-20.304-110.969-16.993
					c-70.907,6.229-127.699,62.266-132.743,133.268c-0.497,7.007-0.501,13.975,0.14,20.747
					c5.638,59.551,42.055,113.115,88.961,150.235c46.907,37.12,103.655,59.617,160.823,77.222
					c277.2,85.364,574.416,65.556,863.655,43.942c101.714-7.6,203.828-15.379,303.416-37.414
					c60.038-13.285,120.673-32.641,167.84-72.09C1384.892,758.56,1416.108,695.142,1402.71,635.131z"/>
			</g>
			<g>
				<path fill="#264675" d="M120.079,683.43c98.698-36.776,118.789,62.199,118.279,67.807c17.334-20.393,45.374-26.51,70.865-23.961
					c24.981,3.059,50.472,17.844,60.159,41.805c203.767-199.312,361.974-7.137,362.485-2.549c0-0.51,0-1.019,0-1.529
					c0.51,0,1.529,0,1.529,0c21.129-73.395,88.709-11.726,88.709-12.236c38.881-45.718,96.867-3.059,97.887-3.059
					c70.822-123.131,219.224-43.335,218.714-44.864c-6.498-133.889,151.952-176.505,154.48-176.91
					c-47.917-11.469-100.265,0.05-141.335,27.472c-35.51,23.709-64.717,64.665-56.873,106.637
					c-65.71-29.462-151.937,0.758-184.882,64.791c-7.604-17.617-30.456-24.28-49.11-19.784
					c-18.653,4.496-34.025,17.287-48.663,29.694c-7.993-16.065-26.385-26.301-44.249-24.629
					c-17.864,1.671-34.037,15.143-38.912,32.411c-20.67-68.214-102.642-102.011-173.283-92.513
					c-70.642,9.496-132.228,51.12-190.906,91.583c-27.746-34.267-83.369-41.373-118.842-15.186
					c-5.325-50.497-66.849-86.029-113.249-65.407C116.99,590.914,64.576,527.875-3.4,499.094
					c-34.84-14.751-73.296-20.304-110.969-16.993c-19.307,1.695-37.562,7.091-54.015,15.469
					C-157.712,497.966,59.682,504.325,120.079,683.43z"/>
			</g>
		</g>
	</g>
	<path display="inline" fill="#00284F" d="M498.179,685.083l17.597-1.905c-2.747-6.271-6.828-11.819-11.89-16.299l-23.016,15.166
		l15.923-20.348c-6.805-4.044-14.722-6.409-23.18-6.533l-4.439,11.21l1.863-11.178c-5.144,0.203-10.074,1.234-14.661,2.971
		l5.313,19.432l-10.228-17.236c-3.887,2.008-7.455,4.548-10.611,7.521l4.467,7.38l-6.482-5.365c-2.565,2.732-4.808,5.77-6.666,9.055
		l23.908,13.618l-26.638-7.909c-2.124,5.346-3.304,11.166-3.304,17.267c0,1.021,0.046,2.033,0.109,3.04h93.34
		c0.065-1.007,0.109-2.019,0.109-3.04c0-4.478-0.642-8.804-1.818-12.903L498.179,685.083z"/>
</g>
<g id="Layer_4">
	<g>
		<rect x="-41.508" y="609.448" fill="#366399" width="1224.138" height="138.278"/>
		<g opacity="0.3">
			<rect x="-41.508" y="675.41" fill="#1D4A77" width="1224.138" height="6.35"/>
			<rect x="-60.906" y="636.715" fill="#1D4A77" width="1224.137" height="6.348"/>
			<rect x="43.111" y="705.37" fill="#1D4A77" width="1224.139" height="6.35"/>
		</g>
	</g>
	<path fill="#264675" d="M813.334,598.709l10.328-1.12c-1.612-3.681-4.009-6.939-6.979-9.566l-13.505,8.901l9.343-11.941
		c-3.996-2.374-8.64-3.763-13.604-3.837l-2.604,6.583l1.092-6.564c-3.019,0.12-5.912,0.726-8.604,1.745l3.118,11.402l-6.001-10.116
		c-2.282,1.18-4.375,2.671-6.229,4.414l2.624,4.331l-3.806-3.148c-1.503,1.603-2.821,3.388-3.911,5.315l14.031,7.992l-15.634-4.641
		c-1.247,3.136-1.938,6.551-1.938,10.131c0,0.602,0.024,1.194,0.063,1.785h54.78c0.039-0.591,0.063-1.184,0.063-1.785
		c0-2.627-0.376-5.166-1.065-7.569L813.334,598.709z"/>
	<path fill="#264675" d="M510.145,598.708l10.328-1.119c-1.612-3.68-4.006-6.939-6.976-9.565l-13.511,8.898l9.344-11.938
		c-3.991-2.377-8.638-3.765-13.602-3.837l-2.604,6.58l1.094-6.562c-3.018,0.118-5.912,0.726-8.604,1.745l3.117,11.402l-6.002-10.116
		c-2.281,1.181-4.376,2.67-6.229,4.414l2.623,4.332l-3.804-3.147c-1.507,1.602-2.823,3.385-3.911,5.313l14.029,7.99l-15.632-4.64
		c-1.247,3.137-1.94,6.553-1.94,10.132c0,0.602,0.026,1.194,0.065,1.784h54.78c0.039-0.59,0.063-1.183,0.063-1.784
		c0-2.627-0.376-5.166-1.065-7.568L510.145,598.708z"/>
	<path fill="#264675" d="M354.482,593.367l15.05-1.63c-2.351-5.362-5.84-10.106-10.168-13.938l-19.684,12.969l13.617-17.399
		c-5.819-3.46-12.588-5.482-19.822-5.587l-3.796,9.585l1.594-9.559c-4.4,0.175-8.616,1.057-12.538,2.542l4.545,16.617l-8.748-14.742
		c-3.324,1.719-6.376,3.891-9.075,6.433l3.82,6.312l-5.542-4.589c-2.195,2.336-4.112,4.936-5.7,7.745l20.444,11.644l-22.78-6.763
		c-1.815,4.571-2.825,9.551-2.825,14.768c0,0.873,0.04,1.737,0.094,2.599h79.823c0.055-0.861,0.093-1.726,0.093-2.599
		c0-3.83-0.549-7.53-1.554-11.035L354.482,593.367z"/>
</g>
<g id="right" display="none">
	<g display="inline">
		<rect x="903.775" y="4.992" fill="#264675" width="93.113" height="823.075"/>
		<rect x="950.333" y="4.992" fill="#00284F" width="46.556" height="823.075"/>
		<polygon fill="#00284F" points="973.612,145.777 903.775,98.159 903.775,4.992 950.333,4.992 		"/>
		<path fill="#264675" d="M741.321-8.636h49.544c-8.599,19.642-13.375,41.338-13.375,64.153c0,88.08,71.111,159.542,159.051,160.132
			v46.345c-113.539-0.59-205.397-92.801-205.397-206.477C731.143,33.118,734.721,11.558,741.321-8.636z"/>
		<path fill="#00284F" d="M1132.394,260.262l-20.01-18.897c-4.018,11.214-10.363,21.797-19.065,31.011
			c-33.595,35.572-89.57,37.31-125.309,4.008l-17.678,18.715c46.077,43.067,118.345,40.863,161.704-5.047
			C1120.579,281.007,1127.357,270.935,1132.394,260.262z"/>
		<polygon fill="#00284F" points="974.459,127.809 1019.319,104.209 1019.319,125.048 986.88,169.218 		"/>
		<polygon fill="#264675" points="919.53,434.77 797.954,397.5 797.954,434.77 919.53,517.587 		"/>
	</g>
	<g display="inline">
		<path fill="#426FA5" d="M866.175,142.557c0,0,3.59,24.459-28.738,33.531C837.437,176.088,831.594,149.278,866.175,142.557z"/>
		<path fill="#426FA5" d="M914.124,211.831c0,0,24.497,3.333,24.248,36.911C938.373,248.742,910.993,246.921,914.124,211.831z"/>
		<path fill="#00284F" d="M807.367,377.279c0,0-9.642-22.764,19.354-39.697C826.721,337.582,839.136,362.052,807.367,377.279z"/>
		<path fill="#264675" d="M913.348,469.525c0,0-24.198,5.058-35.202-26.666C878.146,442.859,904.553,435.411,913.348,469.525z"/>
	</g>
	<g display="inline">
		<g>
			<g>
				<path fill="#00284F" d="M1108.44,280.525c4.669-7.24,7.391-15.857,7.391-25.112c0-25.629-20.776-46.406-46.407-46.406
					c-25.626,0-46.404,20.776-46.404,46.406c0,9.255,2.723,17.872,7.393,25.112H1108.44z"/>
				<path fill="#00284F" d="M1200.096,280.525c8.458-12.02,13.44-26.661,13.44-42.474c0-40.821-33.093-73.912-73.91-73.912
					c-40.823,0-73.914,33.091-73.914,73.912c0,15.814,4.983,30.454,13.441,42.474H1200.096z"/>
				<path fill="#00284F" d="M1258.393,280.525c2.307-6.131,3.58-12.769,3.58-19.707c0-30.913-25.062-55.973-55.975-55.973
					c-30.912,0-55.972,25.06-55.972,55.973c0,6.938,1.271,13.576,3.576,19.707H1258.393z"/>
			</g>
		</g>
		<path fill="#264675" d="M1114.095,254.901c0,2.914-2.36,5.271-5.27,5.271s-5.271-2.358-5.271-5.271
			c0-2.907,2.362-5.266,5.271-5.266S1114.095,251.995,1114.095,254.901z"/>
		<path fill="#264675" d="M1105.044,214.271c0,3.737-3.025,6.762-6.757,6.762c-3.733,0-6.764-3.025-6.764-6.762
			c0-3.729,3.03-6.755,6.764-6.755C1102.019,207.516,1105.044,210.542,1105.044,214.271z"/>
		<path fill="#264675" d="M1043.417,272.284c0,1.908-1.544,3.453-3.449,3.453s-3.453-1.544-3.453-3.453
			c0-1.904,1.548-3.449,3.453-3.449C1041.873,268.835,1043.417,270.38,1043.417,272.284z"/>
		<path fill="#264675" d="M1203.03,212.836c0,2.914-2.358,5.272-5.267,5.272c-2.909,0-5.271-2.358-5.271-5.272
			c0-2.906,2.362-5.265,5.271-5.265C1200.672,207.571,1203.03,209.93,1203.03,212.836z"/>
		<path fill="#264675" d="M1186.635,262.18c0,5.584-4.523,10.105-10.097,10.105c-5.581,0-10.107-4.521-10.107-10.105
			c0-5.572,4.526-10.093,10.107-10.093C1182.111,252.087,1186.635,256.608,1186.635,262.18z"/>
		<path fill="#264675" d="M1153.111,199.821c-5.27,5.781-14.87,5.612-14.87,5.612s-1.056-9.551,4.211-15.331
			c5.277-5.782,14.873-5.611,14.873-5.611S1158.387,194.039,1153.111,199.821z"/>
		<path fill="#264675" d="M1189.202,241.941c-8.292-4.857-10.54-16.436-10.54-16.436s11.203-3.708,19.493,1.145
			c8.294,4.862,10.542,16.433,10.542,16.433S1197.499,246.802,1189.202,241.941z"/>
		<path fill="#264675" d="M1074.988,256.527c-7.479,6.036-19.102,4.037-19.102,4.037s0.501-11.792,7.977-17.824
			c7.483-6.035,19.102-4.036,19.102-4.036S1082.476,250.493,1074.988,256.527z"/>
		<path fill="#264675" d="M1150.766,257.627c-4.011,3.235-10.24,2.164-10.24,2.164s0.271-6.322,4.275-9.554
			c4.012-3.236,10.239-2.163,10.239-2.163S1154.777,254.393,1150.766,257.627z"/>
		<path fill="#264675" d="M1227.857,265.163c-4.643-2.23-6.354-8.317-6.354-8.317s5.822-2.473,10.466-0.245
			c4.646,2.233,6.351,8.317,6.351,8.317S1232.502,267.396,1227.857,265.163z"/>
	</g>
</g>
</svg>
